<mxfile host="app.diagrams.net" modified="2024-03-13T06:27:40.596Z" agent="Mozilla/5.0 (Windows NT 10.0; Win64; x64) AppleWebKit/537.36 (KHTML, like Gecko) Chrome/122.0.0.0 Safari/537.36" etag="AtSTThW8y2lwnlC94_c5" version="24.0.5" type="google">
  <diagram name="Page-1" id="KHjk5I_SNtSU-_kVtTi5">
    <mxGraphModel grid="1" page="1" gridSize="10" guides="1" tooltips="1" connect="1" arrows="1" fold="1" pageScale="1" pageWidth="1169" pageHeight="827" math="0" shadow="0">
      <root>
        <mxCell id="0" />
        <mxCell id="1" parent="0" />
        <mxCell id="1L2qiZJtDCv5jllnD8Ux-1" value="" style="fillColor=#dae8fc;strokeColor=#6c8ebf;dashed=1;verticalAlign=top;fontStyle=0;whiteSpace=wrap;html=1;opacity=30;" vertex="1" parent="1">
          <mxGeometry x="380" y="280" width="420" height="380" as="geometry" />
        </mxCell>
        <object label="EC2" placeholders="1" id="1L2qiZJtDCv5jllnD8Ux-2">
          <mxCell style="sketch=0;points=[[0,0,0],[0.25,0,0],[0.5,0,0],[0.75,0,0],[1,0,0],[0,1,0],[0.25,1,0],[0.5,1,0],[0.75,1,0],[1,1,0],[0,0.25,0],[0,0.5,0],[0,0.75,0],[1,0.25,0],[1,0.5,0],[1,0.75,0]];outlineConnect=0;fontColor=#232F3E;fillColor=#ED7100;strokeColor=#ffffff;dashed=0;verticalLabelPosition=bottom;verticalAlign=top;align=center;html=1;fontSize=12;fontStyle=0;aspect=fixed;shape=mxgraph.aws4.resourceIcon;resIcon=mxgraph.aws4.ec2;" vertex="1" parent="1">
            <mxGeometry x="420" y="340" width="78" height="78" as="geometry" />
          </mxCell>
        </object>
        <mxCell id="1L2qiZJtDCv5jllnD8Ux-12" style="edgeStyle=orthogonalEdgeStyle;rounded=0;orthogonalLoop=1;jettySize=auto;html=1;exitX=1;exitY=0.5;exitDx=0;exitDy=0;exitPerimeter=0;" edge="1" parent="1" source="1L2qiZJtDCv5jllnD8Ux-3" target="1L2qiZJtDCv5jllnD8Ux-5">
          <mxGeometry relative="1" as="geometry" />
        </mxCell>
        <mxCell id="1L2qiZJtDCv5jllnD8Ux-3" value="S3" style="sketch=0;points=[[0,0,0],[0.25,0,0],[0.5,0,0],[0.75,0,0],[1,0,0],[0,1,0],[0.25,1,0],[0.5,1,0],[0.75,1,0],[1,1,0],[0,0.25,0],[0,0.5,0],[0,0.75,0],[1,0.25,0],[1,0.5,0],[1,0.75,0]];outlineConnect=0;fontColor=#232F3E;fillColor=#7AA116;strokeColor=#ffffff;dashed=0;verticalLabelPosition=bottom;verticalAlign=top;align=center;html=1;fontSize=12;fontStyle=0;aspect=fixed;shape=mxgraph.aws4.resourceIcon;resIcon=mxgraph.aws4.s3;" vertex="1" parent="1">
          <mxGeometry x="560" y="540" width="78" height="78" as="geometry" />
        </mxCell>
        <mxCell id="1L2qiZJtDCv5jllnD8Ux-4" value="Result" style="sketch=0;outlineConnect=0;fontColor=#232F3E;gradientColor=none;fillColor=#232F3D;strokeColor=none;dashed=0;verticalLabelPosition=bottom;verticalAlign=top;align=center;html=1;fontSize=12;fontStyle=0;aspect=fixed;pointerEvents=1;shape=mxgraph.aws4.user;" vertex="1" parent="1">
          <mxGeometry x="1040" y="431" width="78" height="78" as="geometry" />
        </mxCell>
        <mxCell id="1L2qiZJtDCv5jllnD8Ux-5" value="Sagemaker" style="sketch=0;points=[[0,0,0],[0.25,0,0],[0.5,0,0],[0.75,0,0],[1,0,0],[0,1,0],[0.25,1,0],[0.5,1,0],[0.75,1,0],[1,1,0],[0,0.25,0],[0,0.5,0],[0,0.75,0],[1,0.25,0],[1,0.5,0],[1,0.75,0]];outlineConnect=0;fontColor=#232F3E;fillColor=#01A88D;strokeColor=#ffffff;dashed=0;verticalLabelPosition=bottom;verticalAlign=top;align=center;html=1;fontSize=12;fontStyle=0;aspect=fixed;shape=mxgraph.aws4.resourceIcon;resIcon=mxgraph.aws4.sagemaker;" vertex="1" parent="1">
          <mxGeometry x="685" y="340" width="78" height="78" as="geometry" />
        </mxCell>
        <mxCell id="1L2qiZJtDCv5jllnD8Ux-9" style="edgeStyle=orthogonalEdgeStyle;rounded=0;orthogonalLoop=1;jettySize=auto;html=1;exitX=0.5;exitY=1;exitDx=0;exitDy=0;exitPerimeter=0;entryX=0.5;entryY=0;entryDx=0;entryDy=0;" edge="1" parent="1" source="1L2qiZJtDCv5jllnD8Ux-6" target="1L2qiZJtDCv5jllnD8Ux-1">
          <mxGeometry relative="1" as="geometry" />
        </mxCell>
        <mxCell id="1L2qiZJtDCv5jllnD8Ux-6" value="CodeCommit" style="sketch=0;points=[[0,0,0],[0.25,0,0],[0.5,0,0],[0.75,0,0],[1,0,0],[0,1,0],[0.25,1,0],[0.5,1,0],[0.75,1,0],[1,1,0],[0,0.25,0],[0,0.5,0],[0,0.75,0],[1,0.25,0],[1,0.5,0],[1,0.75,0]];outlineConnect=0;fontColor=#232F3E;fillColor=#C925D1;strokeColor=#ffffff;dashed=0;verticalLabelPosition=bottom;verticalAlign=top;align=center;html=1;fontSize=12;fontStyle=0;aspect=fixed;shape=mxgraph.aws4.resourceIcon;resIcon=mxgraph.aws4.codecommit;" vertex="1" parent="1">
          <mxGeometry x="551" y="120" width="78" height="78" as="geometry" />
        </mxCell>
        <mxCell id="1L2qiZJtDCv5jllnD8Ux-14" style="edgeStyle=orthogonalEdgeStyle;rounded=0;orthogonalLoop=1;jettySize=auto;html=1;" edge="1" parent="1" source="1L2qiZJtDCv5jllnD8Ux-1" target="1L2qiZJtDCv5jllnD8Ux-31">
          <mxGeometry relative="1" as="geometry" />
        </mxCell>
        <mxCell id="1L2qiZJtDCv5jllnD8Ux-21" style="edgeStyle=orthogonalEdgeStyle;rounded=0;orthogonalLoop=1;jettySize=auto;html=1;exitX=0.5;exitY=1;exitDx=0;exitDy=0;exitPerimeter=0;entryX=0;entryY=0.5;entryDx=0;entryDy=0;entryPerimeter=0;strokeColor=none;" edge="1" parent="1" source="1L2qiZJtDCv5jllnD8Ux-2" target="1L2qiZJtDCv5jllnD8Ux-3">
          <mxGeometry relative="1" as="geometry" />
        </mxCell>
        <mxCell id="1L2qiZJtDCv5jllnD8Ux-23" style="edgeStyle=orthogonalEdgeStyle;rounded=0;orthogonalLoop=1;jettySize=auto;html=1;exitX=0.5;exitY=1;exitDx=0;exitDy=0;exitPerimeter=0;entryX=0;entryY=0.5;entryDx=0;entryDy=0;entryPerimeter=0;strokeColor=default;" edge="1" parent="1" source="1L2qiZJtDCv5jllnD8Ux-2" target="1L2qiZJtDCv5jllnD8Ux-3">
          <mxGeometry relative="1" as="geometry" />
        </mxCell>
        <mxCell id="1L2qiZJtDCv5jllnD8Ux-24" value="" style="edgeStyle=orthogonalEdgeStyle;html=1;endArrow=block;elbow=vertical;startArrow=block;startFill=1;endFill=1;strokeColor=#545B64;rounded=0;" edge="1" parent="1" source="1L2qiZJtDCv5jllnD8Ux-2" target="1L2qiZJtDCv5jllnD8Ux-5">
          <mxGeometry width="100" relative="1" as="geometry">
            <mxPoint x="570" y="230" as="sourcePoint" />
            <mxPoint x="670" y="230" as="targetPoint" />
          </mxGeometry>
        </mxCell>
        <mxCell id="1L2qiZJtDCv5jllnD8Ux-28" style="edgeStyle=orthogonalEdgeStyle;rounded=0;orthogonalLoop=1;jettySize=auto;html=1;exitX=1;exitY=0.5;exitDx=0;exitDy=0;exitPerimeter=0;" edge="1" parent="1" source="1L2qiZJtDCv5jllnD8Ux-25" target="1L2qiZJtDCv5jllnD8Ux-26">
          <mxGeometry relative="1" as="geometry" />
        </mxCell>
        <mxCell id="1L2qiZJtDCv5jllnD8Ux-25" value="CodeCommit" style="sketch=0;points=[[0,0,0],[0.25,0,0],[0.5,0,0],[0.75,0,0],[1,0,0],[0,1,0],[0.25,1,0],[0.5,1,0],[0.75,1,0],[1,1,0],[0,0.25,0],[0,0.5,0],[0,0.75,0],[1,0.25,0],[1,0.5,0],[1,0.75,0]];outlineConnect=0;fontColor=#232F3E;fillColor=#C925D1;strokeColor=#ffffff;dashed=0;verticalLabelPosition=bottom;verticalAlign=top;align=center;html=1;fontSize=12;fontStyle=0;aspect=fixed;shape=mxgraph.aws4.resourceIcon;resIcon=mxgraph.aws4.codecommit;" vertex="1" parent="1">
          <mxGeometry x="20" y="120" width="78" height="78" as="geometry" />
        </mxCell>
        <mxCell id="1L2qiZJtDCv5jllnD8Ux-29" style="edgeStyle=orthogonalEdgeStyle;rounded=0;orthogonalLoop=1;jettySize=auto;html=1;" edge="1" parent="1" source="1L2qiZJtDCv5jllnD8Ux-26" target="1L2qiZJtDCv5jllnD8Ux-27">
          <mxGeometry relative="1" as="geometry" />
        </mxCell>
        <mxCell id="1L2qiZJtDCv5jllnD8Ux-26" value="Local Repository" style="sketch=0;outlineConnect=0;fontColor=#232F3E;gradientColor=none;fillColor=#232F3D;strokeColor=none;dashed=0;verticalLabelPosition=bottom;verticalAlign=top;align=center;html=1;fontSize=12;fontStyle=0;aspect=fixed;pointerEvents=1;shape=mxgraph.aws4.client;" vertex="1" parent="1">
          <mxGeometry x="190" y="121" width="78" height="76" as="geometry" />
        </mxCell>
        <mxCell id="1L2qiZJtDCv5jllnD8Ux-30" style="edgeStyle=orthogonalEdgeStyle;rounded=0;orthogonalLoop=1;jettySize=auto;html=1;" edge="1" parent="1" source="1L2qiZJtDCv5jllnD8Ux-27" target="1L2qiZJtDCv5jllnD8Ux-6">
          <mxGeometry relative="1" as="geometry" />
        </mxCell>
        <mxCell id="1L2qiZJtDCv5jllnD8Ux-27" value="Build Code" style="sketch=0;outlineConnect=0;fontColor=#232F3E;gradientColor=none;fillColor=#232F3D;strokeColor=none;dashed=0;verticalLabelPosition=bottom;verticalAlign=top;align=center;html=1;fontSize=12;fontStyle=0;aspect=fixed;pointerEvents=1;shape=mxgraph.aws4.programming_language;" vertex="1" parent="1">
          <mxGeometry x="360" y="133.5" width="78" height="51" as="geometry" />
        </mxCell>
        <mxCell id="1L2qiZJtDCv5jllnD8Ux-32" style="edgeStyle=orthogonalEdgeStyle;rounded=0;orthogonalLoop=1;jettySize=auto;html=1;exitX=1;exitY=0.5;exitDx=0;exitDy=0;exitPerimeter=0;" edge="1" parent="1" source="1L2qiZJtDCv5jllnD8Ux-31" target="1L2qiZJtDCv5jllnD8Ux-4">
          <mxGeometry relative="1" as="geometry" />
        </mxCell>
        <mxCell id="1L2qiZJtDCv5jllnD8Ux-31" value="Endpoint" style="sketch=0;points=[[0,0,0],[0.25,0,0],[0.5,0,0],[0.75,0,0],[1,0,0],[0,1,0],[0.25,1,0],[0.5,1,0],[0.75,1,0],[1,1,0],[0,0.25,0],[0,0.5,0],[0,0.75,0],[1,0.25,0],[1,0.5,0],[1,0.75,0]];outlineConnect=0;fontColor=#232F3E;fillColor=#01A88D;strokeColor=#ffffff;dashed=0;verticalLabelPosition=bottom;verticalAlign=top;align=center;html=1;fontSize=12;fontStyle=0;aspect=fixed;shape=mxgraph.aws4.resourceIcon;resIcon=mxgraph.aws4.bedrock;" vertex="1" parent="1">
          <mxGeometry x="890" y="431" width="78" height="78" as="geometry" />
        </mxCell>
        <mxCell id="GKW78lkv9_2mcSAoQMBD-2" value="" style="shape=image;verticalLabelPosition=bottom;labelBackgroundColor=default;verticalAlign=top;aspect=fixed;imageAspect=0;image=data:image/png,iVBORw0KGgoAAAANSUhEUgAAAjYAAADZCAYAAAAzO3pLAAAAAXNSR0IArs4c6QAAAARnQU1BAACxjwv8YQUAAAAJcEhZcwAAFxEAABcRAcom8z8AAKRCSURBVHhe7J0HXFXl/8dx763lbFvZsKE5KjMzy7KtVlppW9u7TH9l04UioiLIEMWtoII4EVzsJYiKbO7ee4/z/X+fcw/+zW56uYNRz/v1+rxQuPdZ55zn+ZxnBlEoFAqBYZgvHE7GKXcAHC03QnyBFn5OU8CsfVJ4eqcY7osTwvURPGizpg6CVtdBK07k323W1kE//Nst0Xy4Y4MARm8RwYu7JfBhigx+wzBi8zSQWm0GDQCYnEw5xjWai5ZCoVAoFArFN9Bf9EJz8Z6DYb5bn6v+bsI28XdvH1Ic+PmUivn+lAZm7ZfBK3ukMH6bCO7bKIDbYgXQfz0fuobzoLUbY0N+1wX/1nsdD/pG8mFwFB/uxO+M2CSEJzCMlxIkMDtFDj9maeDrNIVy7Hbx+nezHd/lSs2fYDqGccmiUCgUCoVC8Qw0M+3RRNxYYoZbDlebZp8QWGoPC62Or44qHGheHJ3Cap1tVtQCUetQ1CqXWoXhT2JeLjMz1xR+pxX5LhcGG95KLuxl1RC0oto5Nx+gRG7RYpre4JJIoVAoFAqF4hloIB6uVtl2JfKYIzP2SUsm71HC5AMWuGe7HnrHaSBotRiCltWgiPHAn2hEWKExCQqrc8mdieFE/nbpc+Q7RGho2DBCUCRMEvYS/BkmhR9qAERWANJzxCWRQqFQKBQK5Z8hPTSoWUfEzDt/nFbHLc41wlcFAMO2oJEJRgPyZxUELUejQQwI6WVZgyaF6ArT4jeh6Wm7RgC9I0XwQYa5XGiwr8P00fk2FAqFQqFQrg4ahu5SG/PtaZFZEVJs147aKLD0WSeEbmvF0HatAIJWobEhhob8RMPh1oj4UWyPzspa6B4lg8f2aOHtg4r4I3XGgQDQjksyhUKhUCgUyt9Bs9DjZK3p57By5vybGU6YcMABPaPkELQcjQwZDiLDRMRwBLJ35gqxxmZ5DfTfoIBPT1lgTbZiHZdcCoVCoVAolL/CMEwH1Hg7w7ywMlP75bw0peDZo04IChNAUPBlZqaJxBqbpVVw62Y1RNcAnBEZd5BeJS75FAqFQqFQKC4AoA3qcbODOZmjdgre3CeX3byeD13WiiEoFA0FO4fGveFoLLGTipfVwC3xciau0mmV6e2R1NhQKBQKhUL5G2hqXtIwzP6Eajt8Uwhw91Y9BK3ku3pqmtjQ/L94EBQug07rRfIfck2rzXbmCUx3ey4LFAqFQqFQ/uswDNOHDD9JzMyB/SKAKft10GFlHQStIJOCUY04h+ba4kOXeCP0WserDFpZ/RiXBQqFQqFQKBQXaGomKszOU9trGePkJB10CxdetnwbzUQzMTasyQrjwT0JZnhxt7hi6q66cVwWKBQKhUKhUFwcrzE8G1uiM8/OAWhDemqIqUET0VwMTb1YoxXKg2cO2uDPE4qqHYWKSVwWKBQKhUKhUIKC/jgoGzAtWf3lQ/Fi1YB4HQQRY9Ns5tP8VUEhaLhCePBBFsCeMp24TGqezGWDQqFQKBTKf52FScLOnx+U/jp5n+FC97UiW9AqQbM1NaT3iD1OYUUdfF8EcEZqEZrNdmpsKBQKhUKhBAVVi1Q37jmn+/6tQ7qq4Tut0HaNCIJW1rg3FYEUGe66XPg7dq8asqz78s+sJf9H47WSDy8dNRVUae2/AMCdXHYoFAqFQqH8F0Ez0JZhmH5ZEts3S3PUqnF7jNAmhA/skQj1RiLAYk0LmQhM5szUH24ZxodW6yTQKkIKbSKl0A5FfpL/k9+zGwRGyKF9hBh6R/FXZPKYTpiX1ly2KBQKhUKh/BdBUzMItWiPyFn2+H4j9F2vcA3x1B9e6caI+FOXemOIoSGTlJdWQ9Bi1AohBIVjWiJV0DlWDX03aqDLBjUErVdB0FolBAULoXOkEsbuUMJzO8W/cdmhUCgUCoXyX6ZObhxYLDFnL68GaLtOzJ75FGhDw/bOYIRBwWhk1kqh/xY9jEw0wTMpZph53AkfkHOotokFbZfX7AgKqd3aLbxu65Ao/tYe+DMotHZrq2XV2x6M4td+ng8QVwew86xhDQC04bJEoVAoFArlvwjDMB3iCzUPfZuqzJ580AZt1wZ2Xg1raFbVQes1AugaIYae60TQc3Wt9YGNAs2Xh2Sa2HyN5qTIrinX2zWlSvuqcfGyAUGrBX26oe7c6PpJ/n99eOV1m8/ol52WOjTnDE5NsdT6GzU2FAqFQqH8x0Fj8/y+cv2eSYlqce81YmgdxoNWAVwFxfbSLK+FAXFKmJ0N8FuBFT4+It/5+FbR7NWZqtmF1abZmKZ6DeeS6Rb8+11W/ByR3AYj0Ni04v5EoVAoFArlv0gu3/Bj9AU7PLTHAkGLq9geFXeGxBe55s/UsPNn+m5QwcM7FPDMLsm5sPPMoSKpeR8aFLqpHoVCoVAoFO8hvRtk6Oa7NPlv0w9oYPAWPTdh2L058VbsxGBupVP7tQJ4+ZgVYoq0kuQy40f7xMzNaGpuxHR05JJFoVAoFAqF0nDQTNwg0Nq++SbbfPr69XzouFbk9yEosqqKXekUXA3D4pWw8CxAIp85VymzfIHx9+eSQqFQKBQKheIbEr11eJbAfPbHEoCg1Xy2t8adOfFaZPgpBMNEY3P/dhX8XmCHSiNTwTDMj2hq2nLJoFAoFAqFQvGdHaWaUSHZ6ouvnkJjE4bGhpgQdwbFC10afgqphVtjxbCqzAkVGocITc1c1AAuCRQKhUKhUCi+AQCt0VxMzJTYw2cf1ohu2qSEVmE8/82tWcMZm2VVcNtmFSw9B1BuYooxzq8x7r5cMigUCoVCoVB8B81FOyfDrMiRO5kpKWTCcK1r1dKVBsVL1e9Tc12sHD46aYYCuYOPpuYbYqi4JFAoFAqFQqH4B2JsZHr7ukNigIcSDBC0pNqvK6HIku5WoXx4L4OBlBprnZlh5qCxGcRFT6FQKBQKheI/iLFJqzSF/JlthNs2q11HGvjL2Kyqg65rRHBrlNC5pMiRLdZZvkdT042LmkKhUCgUCsX//HZcETzrkBYGblSxk4b9YWzY4azlNXDHDgN8fEQFETman9BE0f1pKBQKhUKhBJYp20WLx+1SQa9YpWufGTdGpaFiV0EtqYInjjhhP4+BOpnxKy46CoVCoVAoFP8DAP3Pa+1Tph/RJQ2OlULHCIlrsq8bo9IghdVBmzAe9A0XwbTDRkmOxJrCMMwLXLQUCoVCoVAo/gfNxsRzSmve5/lOQ5s1fGgV6sakeCHS69MRTc0zySaYl6ZMP3TROArj6sJFS6FQKBQKheJ/7Bb7S3lCs/YbsttwSK1rt+E17s2Kp2L3rAmugS7hYpifz8CxSn1STY26JxclhUKhUCgUSmCokdmfTTyvq3vruNO1fw2aG5+NDZk0vKQKhsRIIUEKoDY7TgHALVyUFAqFQqFQKIFhxxnN5MWnFLXPHLJD0Eo0JKFobNyYFU/FmhoMo93KWnhspwJOKgEYhjmEupmLkkKhUCgUCiUwzNwtfOTtFGnV6CQbBK3isROH3RkWT1V/evcNGxXwVorSfExs242m5nUAoENRFAqFQqFQAgMajTaoG0KK9J9MSZSIbt6q84+xISuqVtTCY8kW+P2USpN4Tv8mFyWFQqFQKBRKYGAYpjvq1zSps+zJvWpLh7VC1zASyp1h8UjksEuyB86yGpiWaofEMr1WoLS+xkVJoVAoFAqFEhjQ1PRxMsy+HCvA6D06CAquchkbd4alAQpaWQOtgmvgq0KAUqWDzK+Zw0XZ4ui3uvrpGzfrv2obKvoqaHHVV0FLvdQv5aiqrz5Pd3yVKTDNxjIZzEVBoVAoFIp7AKBrVVXVDe++++6N+F9/qhfqXwc2rr11Fvu2XQKAW7eoIGiZ7wdfst9fVQfd1grg+1yHoUJtO4fxTOWibDFgmrtFlBhH3rdNmnLdBrWtTajAFrSsxhYU7IWWo36vtAX9WWP7IZthimWWSjtjn8BFRaFQKBSKe7AxmlxdXZ34zjvvHMT/+lPvoFqh/lUQY1OpsGxed4FhJ/oGLa3xvbdmVS10CBfB0HglvHFYk1YgsryC8bS4U7wxzVNKVY5DL6YaDZ1iDdBqvRZaRarxp3cKCsPyjdBAqBRAZLLr0NhM5qKiUCgUCsU92Bh9KhAI4KOPPgL8rz8VhmqN+leh0TC9UysMm3/Ns8OgDdjwkhO93ZiVhojMr+kWJYMJ+wwwLUEUExS0sw0XXYvC4WC+Oq8FeCsbsFyqXUvgyd4+3iisDtqtEULPKCH8eMZWYmaYpXivDuOiolAoFArFPdhYzK2urrZ+8MEH7syJLwpG/euMzZp0adeVmcpN76dboF+s3HWitxuz4qnId8nmfr2jZTDzqAkWHldsWnpa3o2LrkWhNzs+PVRttL+UZncN0Xm5tw9bJmj2escq4aGtUnhtv2I53qfdAaAtFxWFQqFQKO7BBuMDNDb6d99915058UVLUP86YxMUtLD1jD2SmCeTjNA9SsY2wO4aZ0/FNuLBNXAdGpuvTlthc7F2c46A6cNF1qIol5s/2nRWZ5yUYnb1ZHm5BJ6djI2G8YbNGpiZooSvD8kWcFFQKBQKhXJ1qLHxHCyrQWT+y8xDmvTb4pXQPlzk+/41REtrYGCMDIKLHZAnMm/WalumsUk8q/voj1Mq45g9Rgha7qOxwe/fuV0L809qYEep9g8uCgqFQqFQrg41Np6DZfVKlcZe+n2ew0BWMJGVTD6viCJaWg23bFLADh45H8q+DeNpkcZm3lH5h2/ukxjv2G5w7cvjZdmwxmZZDTywUwdrCg1QKDRTY0OhUCgUz6DGxnNIWZWrHfBtMUAr0iNB9p5x0zB7KtbUEC2rghG7tJBlZs+H2ofqx0XZohgeWf3WyHiB4frNaGyI6bssrw0R6ekJWlwNYxJ0kFhhQbPnpMaGQqFQKJ5BjY3nmKyOWaeEFvUbJxyuZd7+mF8TVgftVwvh0d1KywGR4wIA/ILqwUXZIsB7qJPSytw97YhmWf9ooblztMrV63JFfj0Va2yWVMHkgxYo1LNmj0xEp1AoFArl2lBj4znn5Na3Np/Xq547ZGWHSlhjQ5Ymu2mcPRHbgK+qg4HxOhi/QyJamKv7GK/HEDQ2LWq5N6b5VpnJvmFpmUPQPUrkbBXKc5tfT8QaIjKEhWX7RroFzmpZY7OIi4pCoVAolKtDjY3n7DmnfeuPTJXqsSSza3Js/T4tbhpoT1RvbIbvscAriaKaSZuFj3BRtSjwHrq3Vm0rjhAAdImUsMdMuMuvJyLl0Xo1D4ZsVMA7R3X8LLE1Eo3ek1xUFAqFQqFcHWpsPOfHI7JXP0iRKe9LQGNDJsd6ueqnXsQYBa2sgwkpVvgxXV4XkaNpkTvripX6uzNqzad+KgToTFaKoelzl19PRMqk7RoBPLnfCp8fkGX+dkh6HxcNhUKhUCjXhhobz3lph/jVSTvEypu3G7EB5oZM3DTOHmkNfj8Ejc2KWng11Q5xZ7R1eSLLs1xULYojZ3XDovI1J9494YBO4UI2X27z7IHId9uvEcJbaQ5YlaE8FXFMeisXDYVCoVAo14Yam2uDZdQNNSXsrDnuoS0SY48oBTtk4hdjs7wWPsxg4ESduU5rsbdIY/NgRO2AOSnS1EkHbNCeGBsfJlWT8ui4WghfZzNwqNyQyZdaaY8NhUKhUDyHGptrAwA3OBhm7z4RY713s4xpRQyJD6t+6sX2bKysgx9KAMpUNglei+e4KFsMxPQFZ6kff3a3LOvOHQZouxaNjZdHKRCRHYs7rBbAH2exTBTWTAyfGhsKhUKheA41NtcGy+hmtdlxercMYHCsDIKWVvluaogxWlkDndfwYHkVgNBgV2M8L3JRthgwza9liayprx7SK7pGiKFVGM+nniwyP6f9OiGEYZlorAw1NhQKhUJpGNTYXBuTibmxWGw5uKQYoCc23uwBj24a5YaIDGWRSbKDokXwU4G1XGywR+C1eICLssUAAEtKjQCvk719lmO5kJVebvLrkYjZW1ENAzdKIEkH4GCYUiyTB7moKBQKhUK5NtTYXJuCC8aBO85oUr447YTuxNis8MOOwytroXuUHEZuU8DryYrI8zJmAJqE9lyULQaj1fn7Ib4DJh4wszsoe7tSzNWDVQsd8edju2RwTOG04L2ZirqXi4pCoVAolGtDjc21eSNe0f2PdMW+N4/ZoSvZp8WHVT9EbCMeUgP941QwPUULnx2WLeaianGUySwLo87oYNRuPXvmFemJcpfna8lVJrUweIMCZiTJ7LurzOTMrOdRvbmoKBQKhUK5NtTYXB0sn34yk+P1307rcx9P1EEHMjnWh1U/RGwjHlwNt25Wwy9ZJjhyUb+Ui67FkXRet/CXkyoYvl3r2o3ZF2Ozogbu22WAr1Ll1tBM+VwuCgqFQqFQPKelGhsAaF2vhZf929/C8nm3Rmur+CXPbhyyXgityP41Pqz6IWIb8WXVMGyzClYXmaFIYF6FcXW8Mu5AaeFCV5nlA7TD/7dFteKKtcEsOaH46b0UOdy2RcPuyUPy5i7PVxVZ+k7m5mCZPLLXCCtz1dZjlbqPuCgoFAqFQvGclmhsVqQqBv2ervjs20xY8txexZKnd0qWTNkdGC3OUmdGlQM8d9gM7chOwcTUeNN4XyZ2jg2agEExEvjwsBr+d1yV91KiJPg5N/EHQqM28pa8uE+17JSaCcfr/w3pleKKtsG8vE3w7aQdEhiwScv2ZHltbEjZLqmGSQdMsKfCYJXpbV9wUVAoFAqF4jkt0di8v18+4o0k2ZmpaQCjd6phxFY5jNoWGI3ZJoV7Noqg2zo+O8ziVcN9hVhjg+F0XMuDW2IEMHKzxG3cgdJd8QoYv1sFiQKHCK//etRgrmg9Br/TRWFhhr12QBVx+wYsH3bTQi+NDYo1NsHVMOOUE/IVDDn48jsuKgqFQqFQPKclGpsBUXUjBkULzg3YA9ArTgs9Y5QBU9cICbQhja4PjfbV1BbVJULMxtXrirj9rV6xrjiu326HYZsk8MkJTQhe//tQnbii9Rj8znChwb7jf2cdwk4RAmiziud1TxYpV2Ia22MZf5LDQKnSSozN11xUFAqFQqF4Tks0NkHTztwctLQqKyhKj40i3/W2T4ZBAiUSfgBMTX3PDdsT5C5ev6uGHQIbuMUAY7cINffH8KdxJdpg8L4ZX6O1C5fVgusaLK/2+qRzkv82awQwOE4GH6QbqgpklrUA8CgXFYVCoVAontPSjA2mt/fLe+UvdAjllwStU0PQGmxUyRwN0kAGUO4aZH/IXVwBEzFoIbUwIsEIXxyRaUMyVbO5Ym0wJhvzSBbfdOH7AjQ2K3nsjsFeGxtMV8d1Ynhknwne2Cc5sOCE+mZfJjRTKBQK5T9MSzI2pLHD9L63s8KSffdmlTYoGE1NGM/rBvU/pfoJusE1MGm/Bdbla3RZPPM7XNE2mJwa09gNBZrSWWkOaBWK18GHvX1Ib1LXSDFMS7XBvGOyvS/uqenJRUOhUCgUSsNoYcamtcnqDDsmB3h4jwmC/qxkhzGosfFAxNiE1EDQkiqYeQrgJN8KSrPD671ivt8nvnv+EVnxlAN2aEWGotCcuI3XA5ETvXtEiOGLDAdsK9ak5AtNN3DRUCgUCoXSMFqasalRWIPjy+zw4E4duzw4EHNf/rUKrYM2K2ph1imb5ZzSVoPXfgZXtB5Des1QXdfkaZ99b7/0wkOJJpexCfXO2LBDZMuqoXekBFacBzgjMh0hZ3Nx0VEoFAqF0jBamrHJ5ZmXhBYY4Z5tGtdOt9TYeCSyqqv9WhEM2aCAl1PUmUVS69t47W/mitZj8BqQTf3ePi11pL52UKPpHS1hhwPZnjM38V5LrLFZWgV9NshgqxRAYbCfxPBv4qKjUCgUCqVhtDRjc/CiccnvWXq4kxib5dTYeCrSo9ItSgaP7zPCqwnC+KDp3h24ifdLB1RUiRVg8kETkNO42ZVdXl4H8r32q4UweKPUGl5pL7A4HD9j+F5vGEihUCiU/zgtzdhsKdQu+S5dA7dtUbNnC1Fjc22xvSIhNdAnRgbvpFkgOEOxZelpeTeuWBsEMTZ2J7PuqBxgZIKO7W3xxdQEhdbBdRt18MAmoXrWIdWnGH4fvM5tuOgoFAqFQmkYLc3YLDuhWvLuARXcsEnFrsShxubaqp/HMhCNzZ+FTjhZa9wu1EFfrlgbBDE2Iq09bONFOwwj5tKHeU7s/j1obG7dboLJ24WKp+PrXuCioVAoFArFO1qasXlnv2TJpN1y6LeBGhtPxRqbxVVww0YF7JaQeSyOJLzuXg33EGOTVmUKW5RnhtuIuUTD5LWxIQeKrqyFB3eb4KMDMuXiU8qZXDQUCoVCoXhHSzI2hAc2CRbftlEKXaKV7LwR0mhf2WBS/VXskM+yGrh1qxJSpABOJ7MDTaJXPTb4vbahmcpVH6bqYVAcXgNvhwPJ8nOyG/LyGngy2QyrctTKo1X6N7hoKBQKhULxjpZmbIKCK3/uHCGGtlEq19lEZA8bf8tdQ+xvuYs3AGJ7a7Cceq6XwQM7ZZqNVZateM2nokHpzJVog5mRKFo6ea8G+mxAY0PMyZV580QkbeS7wTUw9agN9pUblBK9gxobCoVCofhGSzE2mM4u1VrmjoFR0uigZTwICpW4egsCIbKRXSB6g0hjTuaVkCE0sqLLXdz+VnA1ax5u32mGqXslvE8OyZ7jirTB4DXoxtMz97x5QLll+BYFdEGz5LWxQbHfXVELc3IA8iQWM4bv9REPFAqFQqGwtCBjM1Jmcuz6+KRdGPQ7NoqLUMvJG38AREyHDw32P6re2JB0L7ssvkBqCeZlaR08keKAP46reDGZmie5Im0weA0eEZuce389Yxddv14IbVbzvd+/hgyPYRl3xJ/ziwEqNTYjhj+Li4pCoVAoFO9oQcbmBY3VwZwHgG+zAL7OdMI3+QDf5PlP32F436LeSzfAIztE0D0cG2FsfN01zA1VUBiajJBqGBAnhbdP2uGnIldc7tLhV+ViPPhznxwgh2828BV2X070fqVWZzMsKQfoQCb+kp4tN3n1RMQQtV0jgAHREvjklPlClca+EsMfyUX1rwHz9ADqs8v0Bt7CPbg/UyiUpgYfyK74YA4hqqioGLJnz54hy5cvH/Laa68Nufvuu4d07NhxCH7sL+rVq9eQkSNHDnn77beHrF27dsihQ4eGKJVKNozm8IBjOjqhBptMJjZtsbGxQ77++ush48aNGzJw4MC/5YeI5Inkl+SJ5J+Uw9mzZ9k8ofrgZ1oMmN6WYmzGWRxMps3BCKt1Tl65xs6r1PpXNToHr0pr4+eJLdo/M9VwU4zAb7sbk4a8zco6eGiH2HKwziRWWZy8ajdp8LdIOVVpHTybk+GZ7M4cO8NM4oq0wdjtzPM5QovoEzSWbK/TCt9O9O66XgYP7dLCy4nSLaEl+uuxPmgR+9dgOjtzz/oQgdI05ITANCS2QjlkwVnlkLdzlUPGnRAMuRs1tkB1Y77WurrObLeIOFUZ7eX7JaYZI/Hvr+FnyXfW4nf3CJRDcjGc+nBJHFx0FAolkOADNwuVLJFIkg8ePJi8bt265G+++SZ5ypQpybfffnsyGptk/NgltWrVKrlHjx7J99xzT/K0adOSFyxYkBwdHZ2cnZ2dbLVakzGsz0m4TQmmYYpYLN5XWFjIpu2PP/5IRsOSPHr06OR+/folt27d+i95IurSpQub3xdeeCH5+++/Tw4LC0smSKVSkq9fiAHEz7UIMP8twthgmfbFRnkCpve5AOv5izLrzpAcHQyLV/jF2JDjDFqv4cPgODU8vktcckJknuMm3sbQRNT1XJE2mLMCy3Nbi3W8V1Pt7NwYb0/0Jr08rg0D5fDqYRN8e0QaHRS00G/3SqDBMnwFlWxCZSusyTv5xuQVF3XJX5VqkmcUKpPHZSmS7z0tTx5+Wr7/jWK18H9igIWcvig3wlO5ioIxWfLkaXkK9juL8buR1frkvUJjMg/DNDsYUjdO5aKjUP6dYKM7wxfl5eXNQDMxAw3JDIFAMB0b4Fu5oK8JNigjKisrZyxbtmxWVFTUiX379sH69eth/vz58P7778Pzzz8PDz74IAwcOBDat2//l8YNjQ107twZbrjhBhgzZgy88sorMHfuXPjzzz9h69atEBISUvTmm29+uHLlyhkmk2kGPsyvYXwBO9mXvAVhHFP0ev2MX375ZcaAAQNmfPnll3siIiIA8wcfffQRvP766/D444/D0KFDoXv37oDG5i95IkIDx+Z35MiR8OKLL8I777wDP/zwA2D5wOLFi+swn9988cUXM86fP0/yNAPjvRO/1yzB9LUIY9OYxORofvomTQNDt/jn2AYyl6R9uAgeS7bC7CTZkYfW1PTnompRrEqTjf8lXVH7VIoN8+TqdXGX32uJNTbBNTAwVg4/ZlohoVS3qaRO04uLplmBz24PfEZeIM9xttI6Y2WlfsZOsSnluAMgBRWhBPgTDcsPPIC51QCvlTPw5HknjC11sHowDw3ySdkl3Z2hhIeKzDDhnAOmXXTCHPzON3UA8wUASyQA260AB80AUTzTgY+LNTN28Nh6kegFkhYuWc0WTGPrCpn1wUoNM+M8KkNompEnsc4o9EF5QuuMUiUzQ+JgZlSIzRNKpdImf3HE60GOFnmYXJuLmM88zCe+EM2oRJGf9arBe0aicUmpd8wwWZkZVsyHiZMDxV3fGQ7uJ6exWJZeHXviTxg5081uZyagiZ9xHq9BKV6Py/NI/s0jebwyn1z+SF4vyxMrK0qPvw+KiYlR+CJscBVoRhTHjx9XlJSU1CJvcul2C0beSaVS9YiOjr7x8OHDMdu3b1fMmTNHcffdd9vRDMB1110HvXr1Yhv+Ll26QIcOHaBt27askcGv/0Xkd+RvxAx07doVevToAX369IH+/fsTc+B86KGHVGgCFMeOHVOUl5dL1Gr1Nxh/F/yuX8CboxWG151UCmg0phQUFBSmpqYqsCFXYDoUmH4LyU/fvn3ZtHXr1g06deoE7dq1c2tqiOrzRPJN8k/KgZRHfTg33XSTZvr06YotW7aQ8lbweLwlGDfZKp5Ukh0wjGYDpocamyv4JEX6yyt7FTBwk9q1gslXY4NhdFongllpdlidqTq2I1vd4MMnmxLyDKE6L81SvvZ2klRw/24TmhrM1yofjM3SargpTgERZQDnxOatGH6zMTaYltb1dYbG6piutDnO1dicii18k+KnCxrF64VK69NnDDARNaFQDxMK9DAZfz5bpIen8eeThTqYWODS+Bw1PJopv6RxWQqYkKeBJ/Fv5LPkO0/hz/Hks/hzYpEBJp3B8HKV1reLVIoVlQZFEcZdpbefE5gc06tcdQhJW7N8tjBd7cqU1t9zJQ7FnmqnIqJAo4gu1ihifFDUGY1ic5lZkSphFIcuGnbsvSAfyEXXZGA+u6qtzvBKE6PYVWFTRBdqFNtLdZe0jdPuCzpFUplekYw6UGFQHKsxKdLrTIq0WpdO8syK03yXTtaZFSVKh0KF11uLYWuawTORzTcOPs4z7UpTONlrsKnk//NJ8kd+JlzQK/ahSB6JDuI9e4zL33HMK8lbBskf/v8U/r9MYVWrLA5d0HPPPQe+aMqUKax+//13ID0u+fn5n3Dp/ht4wdrKZLLPk5KS4l566aXtTz31lOzll1+GBx54gG3MyUf8KWJw0NzAG2+8AZ988gmEhYWVHjlyZAGpVPDvPoOVwD1arXZ1RkZG3Oeff57+1ltvwcyZM+G+++5jDQx+xO8iBm7YsGFsb84HH3xA8lWDJmcT5ikO0/MWfqbZQI3N37knhvfTPfFS6BGn8nrVz+Uic1G6hItgXg4DqRcN6dUCyx1cVC0CvEe6oeYelTpSn92nMvRcL2HLxVvDR74XtKQKhm7TQJICQGVyJGL4vbnomhxMy0iGca6T4/O6lWc8HSW2Q7Aa4HM+wLvVAJOKjHDvKRnce1IGD5yWw0MZxLQo4HFiWrIVMBE1idOTblT/+ydQ5DuP4HdHYRgjUPdhmMMx7McKDTCtAuC9WoAFWEa/1Fhh4UXt6UNGiKvQ29dhXTKCS26zAtPV7ozYFHkIC+/zAoBnksww5aAVnjvkvaYcsMAraQDflgJ8cUR68vZIoVebS/qT9HRou79MvyteCDDrFMCU/RZ4+bDVpSNWeOmojRXZo+lVTq+n2uCNdDu8iSI/id467oDZnN46bINvcwGO4vUuEFsTBdqmn69589aq66cdkJx+8wzAi8cAXsDrUZ/Pl47Y4GUuj9Mvz+cxVz7r8zqL5O+EA97A775x2A57xXiXICT8KxsNrzR27FgIDg7Wp6WlvYf//wv4MD+k0WieXr58+dshISHnFixYwA4x4Z8aVZMnT4avvvqKP2fOnE8xnU9juh7GMvCqS66ysvLe9PT05Rs3bmSWLl3KDofhrxtdZCju66+/hv3790NhYeEpgUBA5jt0x781OZgOamw4sCx62xhm3JRk1fYe64TQPkLqlyXf5NiB7uvEsBobxYsya55FZ7mLi7JFgOXSD7Un1wIwJlELQct9PNF7NQ9arxLCTfFyU0ylI9/iYL7DZ7xZzEszWOH+CjuzNlPPQJIdG9NKGzybp4IH0cA8iMaD9LgQ40JUb1Tq/++L6sOqD4/8HJ+thJFoeu5Es/NgphJmnDPDGh3AJpEV4viGNWkG5mmDnXkKy67ZDG1iWtqdlZpD1hab4Y7Nagj6vco1Ty3YBy1FhQjg+g1qmLxHWZBcbZqF8dzERdno4LMw8Jzc/tKX6bq00dvU0HaVyLWtwuVpJpPr67ejIPn3RL9UQbdVEph7zALR+er4TJ6mSc2+WG2++Yd06dvd14sLg1Yr8AWN70rnpXxyeWTzyeXhn0Su4SIedFxcDe8nyctrVLbDJA53DUeD9cgjjwAaF92VxgYv1L0ymWzf8ePHq2fMmCG44447nIMGDWLnx+CfG1Wkt4P04tx3332iiIiI6rKysnS8iR9FtcK/XxP8XGtU29zc3CHbtm2LmTdvnpL0zhBz0RT5IWrTpg2bp7vuugu+/PJLa1JS0hmhUPgSSSv+vUnBa0+NDQeWxViN1Zn2vzMOdasQHrRagQ2xl6t+Lhd56LtFiGBVOeMQGxypGM/tXJQtAkxvPyfD7D6gBBi6ReU60dtNPj0ROwy1hg/d43RwY7SQNz1ZMZuE35TPAsbdhtQZBRrmtmNS47Y4JaOeU2mHKaUmeKJQhwaD9Kq4hpJID8uVRqTejPgid+GR3p/HsuQwlvQIYbyTMS0voLl5vtgAs86o1PFKprpQbasU2RwfYyXZluShqesUjL+dUGMP2XjBCvfs0GBjhiaYDOeSfaG8Ffl+SB20W82HD09ZTWUqWw3G8yEXZaODcb+ULbKUvHXCpm9P5pqRifTu0t1QYePfZZ0Uph0wwoI02cYlR6uadE5VeoXug8WZytq7t2lMQcswn3gN3Kb7WiLXD1/u+sWq4cltYvjskGJZmdjMDse7azgaLDIpduXKlbpjx459gP9nwYv0eEFBwdawsDALmTx7zz33uP1uY4vMVZk6dSqQniM0YnssFsvz+Purgnlpj5XkXIPBsPy3336LJvNcRo0a5Tb8phKaRnay8erVq1MPHDhw1blOjQGWFzU2HHZ8+72osCp+u8AtZ8aH0S/GZq0Uw+Fb3z5t2KW0Mq9imTebYRdPwOeqL19r27r+IgODNsjZ+TFeGxuynw82ULfutMC4zcKK21aVj+GiaRLwWnQz2hyfn2aY5R+d08d9WqrRfsgDGJujhntOSNkhosfRYNQPH11pSAItEmf9sNYENDcPnXYNfz131gLfKwCWyQGWVunyD+qY5RrMA+aHTDJusmXzGHc7lcEesgON4chEHT5H+KZOrj15jrwUa4bJysLQGvi2CEDKAGA+F3JRNjrHyjUzIwq18NQxrCfIIbDYeP8lzZfd76wu/9tVRCbjd4+WwRP7DDAtQbyei67J+OSQ9Ns3Uk1w2y4rmhO8jqSH9vI0e5LPta5rRw7hHZPigLgKgDyh6XsuCrcNR4M1YcIEshJJc/Dgwel4A7bS6XTDsrOz45cvXw4jRoxw+52mFll9RMxNampqslarHYs3dCf8/d/A3w9CvS4SiS4cPXoUXnvtNXZCL/6p2YnM7Zk2bRqg+cpev379c+np6T3x900Clhk1NhxyvX3CoYv6yrmnscIibycrvN+n5ZKwMmgXp4PO6+oM7cJq/zYE3BLQ6aBvWpVh628FdhgQi8amvrHyQmwlF8qDh/da4OMUWfXvx6RPcdE0OhKJ/voSreOdEyp7zQYDwLSzJhiZrYKHyHwZNBLujEZTi8zLIT8n5SgxnXK4+7QCZlywAraxLPg8R+CPdlwWGx0St95iDz+KhmtMshHYIz28HLKsFzvsSYwNNq4fZtihTGV1Yj4vNY6NBcZJVkLdviRL/+uzO0SGmzZpWDPij3l4RCSPHdeJYdgWNcw8pE7JE5sfx/gafZ4NxtmlQmm9e1KCcnW/cB7Tcb3CZS6vSK/HwvLpHMKHZ5L02mO1piIM/9I8U3cNR4NFemzQ2CjT0tJexMCHnT59ettPP/2kJr0IZIWPu+80B918883w7bffGjIyMtIx3U/g7/4G/n4umpqLZD4NmexMhn7w181W/fr1I0bT+vXXXxdHRES8hr9rErDcqLHhyKvRT9iQrymfkepgG1/2Tczdg+qh2AoZK77+W/QwaqtQPy5e0CLPQjrE0/SOyNNu+eSkFfrGyFjD57WxYbunefD8IRuszFBVJ5/VPM1F0+gckVi+iBHaK+bVOGBmhR0ml5jhkRwVPJIhZw3E5cNCzUX1aXoiSwEjTsvgLjQ2L501wx47gMVlbMjE4iY1Nnanc9UJNDYPJxtccy98NDZErIFYVg2vpVuhVGm1Yz6/46JsNDDOAdVKy9rlJY66QZEiRztsrP2Rt3qxYYXxoE+kEBYUOZQCg+M0xjmFi77RUCgsw45U6LZ9eMIubBvKY8jz6u0LHrlu7dcKYdQuA8xOUeQeqrKQ+aWX9tJy13A0WA8//DDZg8ag0+k2nj17dv0PP/xgHj16tNvPNjfdf//98OOPP0JxcfFuLJipqG74+0vk5eX9lpSUxA5fkTkt+KtmL7LsfeLEiaRHKjUxMZHsd9MWf9+oYDlSY8MRl6ee8Eu6onwy2adlFTlo0w/GZkUt3LvTAB8dlBlWnFLO4aJqYSxs/fkByYZXDpuhZzQaG1+OUmDnW9TB7JNO2HNBX82Tmhvd2JzXMn3WVOo+WiRyFn4mAHiq2AwPnZKxQz3N0czUi6SLDEmNz3KtnnqixAof1QB8fladEy1jMDvMInyen8V6pCmHotpgGqbsrLHF3btdLukYzg7Dur0XPBY2qqyxWVwNLx+1QImiaYzNoVJN75gzmhOfnQHoGC5xDUO5S6+XYuuLVTXQBfO7pAKgzuAgRvV9LvpG47fjimE/HFdUvHgKoPUqNG8+9FyT+XgdsKx+PAeQeF6XkV6m+8uKNncNR4NFVgVt2bIFsCFjyGZyt956q9vPNVcNHjyY3QRPLBbvwgeInViFP1tt3Ljxhk8//TT86aefhuuvv97td5urSE8Z6WFatmxZQUZGxhS8kRt1tRTGR40Nx4xEydhXE8VlDyRasJJBY7PKR2NDhl2W18Jje02wMlNtSLuoa3HGhtyP6SLbyBkHFMkP7tRApwis0H0wfGxvT2gdfFMMUCixiu12+7NcVAEF80GWrN/KZ5ihi8sN7353TsObWeWE0bkaeAQNDekBcWcmmoPqjdZ4TCPpTRqXrYSnSwzwaZXDGV6trzkgMX9I6sF6cVluMkga7t3AH3NLFL+wb7wBWq8V+GYA6o3NIjQ2hy1QKG18Y4N56hWRrZ4wZbcsY9h2A7RdK/T5xedKuYxNLXTGf39fBFCqsmkwn422PQh3//T9JE099a6NorJ+m/SYLu8PuiVqu6IOro8UOVdfcEpkevsGzM8gLjoWdw1HgzVu3Dh21+Do6Gh2x+BA7EsTSJFN82bMmEH24zmwdOlStsdmx44dt6EpiH3hhRdqyGZ5l3++pYjMI3rllVccSUlJ+SaT6Q38XaOBNxo1NhzXhdeMuSuWXzZgm5l9y/T1bYytjINr4JkDFthWojNWy80t0dhMrtI7Dr2TYZN0CxdCazR8ZN6Qu/x6ItbYYEW58CKAwGCXYPiNZWwmWp3OvVk2Ju3DYvW5KUVaGF9ihrFkpROqufbSEJG0kd6kUZkKuP+0HF44o4NIHUCq2nk+U2Eix9xcx2Wz2dBlScXd92/g5924nXuWwnwwAZf12Dx30AwnBeZGNzZijfXVLSXak+N2a5XtV/J9egauJpLPNiF18GEWAwUyqxLz2WgLTNDUtK6Rm+euPWPKGxqv1JEl9uQFz106ryXWpGFeBsepYMJWkWlpjj4Yw78f8/OXObLuGo4Gi2waRzanI0NSZCdgd59pziJDTGR337Fjxxbt3bv3KyykDxITE0PeeustM1nS7e47LUVDhgyBX375hexzQ+YBTse8DcDfBxxShv91Y4Pl3Q7LYdyqs+blN0aLpB3CFfhw8nw3NiuxEV9SBTNOAJwWOcFosX3BRdliwHL5qFzrhDkF4FoNFeLDhGqs7NquFkKPCCF8mm0uUZidSzD8u7moAorYZJ2erTQz2/Biv3TBDiOzlDDmtIw1Df42NfVhXi53n7uW6r87FtM5MlMJT5daYZ4CYIsW4LyTyXXYbJ9hdpp82313vLlLPHrKDnHhvbtMeO3JW79/jM3kFDMcrDHabY7GNTbrC9Rfz88yw/BEq2u7A5Ifb5+Dq4idgxZcC2+ccBADp7RaHY26cnZjvirk50KA27YZXENt3hg4cr1IPrC+GH8IYHm2BvaeUc3iovgL7hqOBousxiHzOgK1425j6f7777dHRkYazpw5o1+9erWZnOvU0nqfrhQ5puH222+HuLg4h1arzccK/yH8fcChxoYtgy5OJ7P6gJAx3bVZ6Qxa7IcJj2xljFpaAy8fMVtyJNZajMftw92csTqY947Xmkwz0x2uTcjql7a6y/NVREwiaZy6Ryvg/s1ymJIoXVWuYI8GCPh8EIyo+4pa86fzzmsNM2uBHX4iG+35a/jpcvNSv5vwYygSh+sYBdf+N/Urmq6l+rAm4PfG4fcfydPAUwUaeL9YrTtsckqkFkcV3kvvoprV8SyXM++wePQHyZLCR/eaoTUxNnjt3d0XHqne2Cyphkn7TZB40WBXWhyNYmwA8tvxNEzvpxLkv9++QQDdY9WuF5ZA9dgQQ7C8Fqam2mBPmUHJV1kbxdgQg1wqNfSftlcROWKbCnrgc8qmxU0arylSP2Dd1za4DqYdtpiPVBqrTCbrq1xUf8Fdw/GfFRm6efPNN8lyafYoBrKpn7vPtUR9//33ZN8eQVFR0Sj8f8ChxoYtg25SnX1LkgRgGDn4clGlf4wNGYdfK4ObN8uz99RY38bK4xYuyhZDucL6ztZSnfb5g/imugwrOi8bKLZrGhuE6zeq4MUkNbyfLP6DiyKgLCyF9n+cU3/3eQ2T82S+1jomT8vOqbncQPiqemNDRDbVG41m5L7TcrgXdQ+K7DtDjk1oiLEhIhvzkTDergNYVqmzR1YbVqI7nob3KzmUs9kNP13OmizF6AVpisJn8b5pQ4wNMcRu7guPRJ4lMl9taTU8vs8IG0u09kqlrVGMTa3afPPRCuOSt45Zituv4jmDVgncp9FPYg3cilp45oAVIvK1yqxaU6MYG6vBel9mrSl8Vqr1YsdVfGgdhvn0og5kX2DwWnUMF8Hdm5Qw+6A6I5tvfQvrPrc7RbtrOP6zInNtevbsCWR3ZDI01dJ7ay4X2U/o448/FmRkZPwPK68H8IYI6EopamwwsQBdC3mm9auKbHBLHL6peNsFe7nw+20iJNAjXgfd1tVuDxqR35mLrkWRdEH7ztIMlfbxJDNb4fpkbFbUwC2b1fDtCR1sKtItD/S9fb7WMGBLnfHD7yvMZa/XAIxFUzM2Q+bzZnvkuyQM8m9yRtSDp2Xs2VEP52rhhQsOeLWcgVnVAHNrAb7kA3xa44SZxTp4Jtu1jPyfDA4J8/EsOYxBQ/NYgR5exTC+EgFEKxjJSbkphrFa7+Gy1mDEYnGXVZnKyQqGecVmsz3K/Tpg7D2nHR2Woyp87Zgd2oahsQnxg7HB5/KRRAOsLdDY88WWRjE2K4vld/xwXFH6/HGANtjYs0Ox7tLoJ7HGBstq3D4z/HJcqdxapG0UY3Psou6x9flq6eunAJ9TTIeX14s1NnidSI/PV4UAUQWqxA010JGL5m+4azgaXWS4hMxzIcaiffv27E+iplxe7e5EcW9ETvImBunyvJH/+yt8T0XiHTVqlP3kyZNk4thSrPwD2iBSYxMUJJVC1z1ntesXZJhhyAY0Nj5sQFcv8oZKVhCN2mOE5xIlO+/dUtdsTq9uCL8dU8yakyLV3p9gcnVNe7lCgjU2WOHdu0ML68/ZoVRsXRlIY4P3dYejUvPHq6r0wlkX7czoPB27mugJNA6+mBoi12GXSpiUp4EJ+Vp4FDUO9WSOEl4rUJq+P6cxrK7WG3YJjIY0hcWQJDGbFl3UOmcUqFlTQ1Y3uQuXTBAel62CsbkaeDRL7vi60mZI0zgMQhMTqTSZhmB5Neh5ws+zp7JvEjNdXtjBn/LFYdmZQ1qHuERmO2iwMg/i3wI2PyePbxy9/ayu8IOTDmgXisbGhyXDRKyxCa6B0WhsVuSo7SdqTQE3Njt3QpsRO4WPDojil3bfbMH0C/GFxQeD5oHYfOJz9kCiCeakyJS/pMtmcMkJCOQeIc/Kd+nql15MkAjvSrChuSJbXbhP37XE1pvLamBwjJQJP+e0VCltsRj+X7ZmuRx3DUejiwz5kM3yyGncjz76KHuoJulhID0n7j7fUkTMBBneIhOQSZ7ImVokj2TOS/fu3d1+J5C67bbbgOzJIxAINuONF9DDAamxwQqsVNr1p+OK9TMO6aFfjJx9W/HF2LBvLViR94iUwqxUKyzLUCXsLDU0m4MKG8L90XXTx24WagZtNbKVnbc9WayxWVwFo/eaIFUJYLA6yUZyATE2ANKuApPtm506ZyHpNZl41gqjT8vYOTXempr6XhpiTEacksEDmSp4Fg0aOfE7Qg9wxA4Qxzde+PKc9ttlF3Vz9ouMc0qU5jlKs2NOgdr+Z1iFru7jcgs8mav6m7EhYRNTc/9JGUzAtJI0zylRpf3JZ+bIHcwchrGN5LLWIPDZvqdWZV/x0xkmYkA4L3VEvAxm5QGsPmuxiswMOVH9Be6jfoevsI0+XKkv/DKLgXarBGxvn7v7wlOxp8mjsXkowQCLM1T2wxcNATc2UTnSyXOOaHb3iJTJgkJF+Fz7uB+PB2KfE3zOhu02wSt7xIqpu4QvcskJCHgPdDJZmdkRFxz779go1XZaI3E941485+xxKXid+kcr4OEtEvW6Ems42OFJfM6bT48N6akg+9wQA4MNvrlz5845vXv3Th85cmT6K6+8kj5r1qz0mTNnpr/00kvpd911VzqanqxRo0YZn3vuOXbV1U033dRsV16RYSxyhhTZHG/YsGGyDh06HMef6c8++yybp7feeit92rRp6Zj39Ouuuy69b9++xcTwPPHEE42y9w9ZIfXtt9/Chg0bVuP/Awo1Ni4e2sJfQw7t6xKNxoZ0B7t5cD0Va2yW10Df9VKYn+WAlAv6hBppyzI2pDLCe2P4Bye0SwasFxg6RypdjYu3xoasMgvhw9BtKv22alsBhv0RxuH3icMY7s1qB/PBUaW95g8FsL0fD532vpem/ntk/5hHctTwbKkV3kLj8UaxFmYUqYv/LNelnzExZEd0oh8xT3/b9Te4XHfXHxd1uV+hCXoqT8MaGxIuETFKD5Ows5Tw0gUrfFltc6ysNhbsFfq27YNCZ7krS8IEryvSMa+fAGi/Fhsschrz0hp46ZgNMtFcyvX2X7mP+x2t0TY6m2cq/DEfC4QM4fjJ2IzYbYDfTirtSWcDZ2zwGvbCazlmbZFp96sHjTAoVsW+qHh77zdE9cZmwEY1PLFLol1WpP0T0zL8aubAFzDc1hl8c9zKMoAb4jGfPgzDs5Oq8TpPPAqw8IRCE5Oveo6L5h9x13AERGRIhgwt3XjjjUAau/j4eNi2bdvxN9544/GBAwfeMWHChDvw93d88cUXrMi/0ezcgYbgkVOnTh0uKiqC2NhYeP3119kwSG+Iu3iaQvXDTePHj4c1a9bA4cOHISEhYT0atmEkD5jHv+Tr6aefvoPkecmSJa8fPHiwfP/+/UAOCiUbBZIyCtQwFTFe5PgLNFgRwcHBXfB3AQMfmv+8sem3U9q1SzhvfUd802gTKXP70DZErLHBCuL6KCmElACcEZj3YAXSoowN3hdDULGxVQ5x7wihs1WwK1/u8uuRyCZt0VroFME/P+2wgkyAJSd6+30zOQz384tmpu5PAQNPFxtYwzDex31qyITgMdlKGI16pVAD4UoHJInN5VsEptfDq7V3aBnmDoyXqB+XjL+wEI3Nz+e1uZ/x/t/YXJprk6uCcTkqeP6MHsIUTkhV2gsztHay7bzXG3XyFczgvRe00T/l2uX3o1m/LkqF5S/Ghgev4dJquGO7HhZkWyDujGYp9xW/Y7MxY87JzMW/nUVTtYYYG9/mprANPobxwC49zD8mt28r0gbM2GDZj9JanYcXFzv0/dYroAOZMBzgIah6uYxNLZpBHozeIXekyJ0iTE8U6i8b2/mLDUXqnt+kKba+nGqHnmQlFDFwbtLlidie7hV18O5pgKNVBr7GYL/mruLuGg6/iywDJ70YP//8M/zxxx8Vq1at+rOurm4BFurL+Pdrgp8jD+SCixcvLpg/f/6CqVOnbsTG2fnAAw+4ja8xdcMNN8CHH34IaBTIydonCgoKSL6IRuPfrwp+pgvqXYvFsgCN3pqQkBDN77//zhokMh8HP+JXETNITjd/7733CiUSyU8Yd8D2+sCw/9PGBvN/T6XG9vOkFGNh0EohVixYifkwF4CINTaLKmFIrAL2ygFURsdRjGcgF2WLANM7VG5w5GyRAPQkuw0vrnKbV09EuqhbY+PWb7sZbojh5QUtrLiNi8bvFMjNfx6yArxZA3DXCSk7xFM/0bchqu9RGXVaBiOyVTALTcknZzXquWd1q4/YmAVaK7vc2qOXjuWVxhELL2jzP6sDmJyvYdM0JoPsTaOAl87bYJEGYKcOoMjBpOqtjplo+Bo8REfe6DE97/MY5o8PDqvWTd8jUTy814Zmho8mu4q9Buz1WFUHndeI4PYYEfwvx3qqRmv7Er93MxeM38D0PMrT22tW8wE6hONztbz6b/dFQ8Q2+Nhw3r1DB58fktnDs9UBMzYFNdqxRyqM0o/J3k2kl4uk3cc6wVOxdQeZZ7OiGkbuVMIpvJctTiYTr9GtXPL8BoY5vEhq/XXGEUNxv0gxu8cUuT/cpetqcqW5DjqtFcFN0WL46Lgpq0zm+BrDv52L6h9x13D4TaQngxzKOGzYMO1XX311trS0tAQT9TvKp94CmUz2YEpKyr558+ZpyEGbgTAB1xLZjfiWW26BZ555Rrxr164SuVxOThf1+jBCfGBvQsVVVlaWfPnll2XDhw+3kZVZ5E/+FoYPGI/MbrdPxf8HBCyL/7SxwWs5vUJlk3+eTTagI12pvk1yJGIf9GAe9FsvsW+qdtRhGYdgPH85I6W5ozHDLVk1xtTfCgG6h4uwcfT+jZu8gZK9TMbss8CbSZKijw7LR3DR+A1SV1mwIl3DN0V9fMEET5ZYYGSGnO1taWhvDfk8mY/zKH7/8QIdvH7RBitkjDSRb4otVcENXJQesxiNzffntPkf1gKMz1WzQ2PjCvUw5Ywe3jmjEiXrmBKhyZGHeXid+0qDwO/11lhhepnaeS6+zgmP7VRAJ/aMH1eD85c3cLLCiEyOD+HBHLzn91cayvha2xguKL+BabpXbHLs/PmsQ9wuXID3gHc72Nar3tjctlUHb+6T2P+XrvS7scFntDWme9COUsMH7+6X80fsMmL5+X5mXEPE1h31Jm6zHBLEAGqb8zBpd7hk+g2Fzv7KgQqDcsYJJ94raKa8XJLPphnNX/+NavjgpB2WnVZElpd7tseSu4bDbyIN8yuvvEKWGe8MDQ19FC/uWCzIBj/AV4JhtJVIJMOLi4s3r169Gu655x638QdS5JBPNFb2NWvWLCopKRmLeRtDKgL8m9dgvu4kZYRhvjh//vzsadOmQefOnd3G74veeecdOHLkiF4gEATs9G/Mx3/a2Gj01hmna02GOZlobLDx9mln3XqtwcowUgVt1/KVLx9Rzccyvh3vmSY7cdkbci+ab4kvUB/5+KQDuq5DY+PDHAlSSZOlstNT7RCSqSpKOGv0++aTDGN9oMZo375K6RCQoZ3R2Sp29ZI74+KJyHDR2EwFfFrHwEahGbIMTMgFLXMHF12D+LxEM+KdIlX+tAqABzBd5ERushz8j4ta8+oq/S8FNobUS6PwHunJfaVBmM2OD4/WWkq/zzQxo/cZoQ+ZE0KMTf1hpZffz8TYkLkQK+vg4YMAHx6U8X48rhrHBeU3MC9dJVbr8JEJinCM0xkUKf/LPdFQsY09NrxDNmvh2V1i+7sHpX43NngNOmG65yXUOM89sEVu7kx6uzBed+kJpFwvRjUwKFYKcWiGFVYnXin/G5vIXM3r89MUpkdTOGPjpYFjr83SKrhjhxZiKgHOy0xhXBTXxF3D4ReR3ownn3zSjo3/7qSkpKfwd34Hb5gJpaWlO9AEmMmKI/xVwEXm0pBJzN9++61o//79oZiGYfh7v3P06NFZP/zwQ8q9995r7N27t9u0eKsXX3yRnO0lzs3NfQX/HxCwXP7TxqZcZJy2o1grmXbEhm8d+ICSh9sXY8NWhDzovtkI10fzRUHLygPyTAWamFzzLQvS5EdeOmSFTsTYePk2R1RvbD46zcDec7qiKrnN78amSKwZdUhiFgWbAB7ijkto6BBU/fATWUE1IU8L8yUAe1SMvExvX4fPyX1cVA1mNhqbVwqU+ePPAYwpMsEnQoBIGcPbJzQGm82M18Ny8fHl3Tfnqt6KLHVkfZ7NwK3xanYODSnvvxmay8Q2RGE86LFODnfHSSXL802r9Wb7EwEx38sqPuuyts7ZLlbjNi2eqt7YDNikhce2Ce3T9vrf2BCO1Ro3rEADOnATluXiKlc5NrJYY7O0BnpHSmBNGUCd1uZXY4P3cjeLnXkhtNiy8aF4kaHfejl3T7hPz1XF3Ut9IqTwyE6FYkelbSeGP9XTe8ldw+EXodFQf/7554dCQkJGYmICcjIsCddgMNx3+vTppO+++07Vo0cPJpB73xBTM2jQIMc333wj271791qxWBywXToxb22ioqLe/PHHH7X+Nm1oOOHPP/8UJyYmUmMTIJJLddOWZ6gkT6VYXV33PnY7s13/oXVw504TvJAglsxKlng0P6258fBW+cDJu0SH7k80QXsyFOVDuZBuamJsfioGyOObzpMVM1w0PkPqFryHe2/i6V//8YKu9j18w52Q0/DeGmJoyBEG5AiExwu08FGFHVKNjEpjYaIx/MFcdF7xdqHmobcK1aXviQC+4QHsUzsVFTr7SpJu7iMNAvPcGtU/+aJp1o9pqvKJewxMhzXktGnSyKCp8aCBYhsybDxviVMwwUUWW1adLgzD9Pvy+2ExvO9vjuE7u21Ao0DidJMWT8R+F41Nv41aGBUvtD+727/GBvPeOaPGcud7h1U7Hk3UQdf1Uja+hqaXNSVsY+/6t7vPXEtsGMtqoFeEGBYVAeTyTQfNZr8am37lMnPCqvOM/bpoCT6fDc9nvdjev1V8ePygE744Iq8Kz9cTg+zxfeSu4fBJ9Zvt3XHHHXHLli0jQ08Bb4S0Wu3oRYsWRT3xxBN2sm8M/iogIvvATJkyRR4cHPxLeXn5Xfi7gKJSqV7Mzs42vPfee27T463IXjpz584Vo7mhxiZA/Jgqnfb2fpnEtQEdPqheTJ67XMQABIXUweNJFlh4XCmJK1RP46JqWfxY3q97RN2BbpsN0HqdyKt9LepFVogRY7OqGkCst1fgPee3OR1Yb3U0OxyfHtQ4s14/ZzQ8nKeBiTlK1qi4MzD/JNK78wiamuGn5fCZEGCP1OpQMEwww1iHc1F5zZwizagfzukuHsHEZmkdZqETfgGL5U7uzw2GNMJYhj8cEDrKJiYZoFs4t6lkqOfDqGzjGVwNfdFwvHUSYF6aPIYL3q+8sFs8b+wWobPfRo3r2fDyPmLTi89mzzgN3LFBYB8ZL/CrscHyHJclNO9845iF1wXv1dZh3p3gzabTR2NDRK4nmbT/baaD9HIevCA2+83YJJ7X9tlYqEr9uhCgGzFwPkzsJt8lxuYTNGDJFfqqGrX1AS4aj3DXcPgkshT7pZdeIiuF5uH/G43U1NQvyFLrQA5JTZ8+HTZu3KjJysqahP8POPhQjNJoNOvnzZtXSfbv6dChg9t0NVRkz5xJkyaJZ86cSY1NgOi1uvrpOzYKRNdtRWPDVUjuHmBPxb7lraiDlw7ZIK5QIymsNbY4Y4P3xF0x5/VfDoqTng1aK4egNb6tFGuzSgid1vLhxwJLkdnJ/IkNs9/OzJKCtGu1wR6f4gB4ocwOd56QssuoPTU29cNP5KiFcQU6mF0DsEHNiOqM9vWkHLhofOLTM+qbl5Rp/xQxzGaGcZKJ5D41UpiuTqgvTsmZwndPmGFovJab/NlAYxNWCx3CxTAwSgovJ2vTciTWmRjuEC4av/D5Ifm8FxPEziGb0diQZ8PL54tNL6pjnBZ6RdTZg0KqPuGi8AunanQvRxRqLC8cJyuhyBwk73ooW2P+OuE16BbOg3Y+PDNkflR3NDbvHbdBeK764MEL/jE2eH3vyBSaP/3gqKbo/q0q6Ei2YVjlZW8s5rXjagFcHymA73LtxRdVVnJa/zVXQl2Ou4bDJ40YMcIeHh6uOXfu3Of4/0bDZrN9ePToUflzzz1nI6ux8Fd+E+mFIkulv/76a0t5eflZLOQn8PcBByuq9kqlckhUVNS2jz/+GPr37+82fQ0VmbNz2223iYcPH06NjZ/Ba0ZWQHS5JV40u114naxNrA4bBd9WbpBGhZ3fsKwWZh9n4EiFQSXTuD/VtjnjcDCfHakxKScmGWzsid6k4vOikq5/e+0aq4Ybo3nMozvFv2G590D5bchjZ2lp+9haQ+QfIoCnzlrgAbLDMGdW3BkZdyIrpx7MVMCUYoNzrdChz1JbyZyaQZhOvwzNL0xPb7ukStUDw+xN8s/92mtIukg4EqP95aO15qIPT9rM7ciqI7z33F2HfxS5X1fiz+A6vF/tlpN8U5mdYa65qVpDWJahmvdeitQ5dBuaL/Js+Pji0DpaBa3X1NmvixH8jOXZDcvB500eMZxOn6Wq3396l1h763au57YB6ay/z9tjeQ5ez4eHNgnhgY1C6BnBY39P/u7ue1cTMVZdIsTwyhErzE9XpCw9bfTLdhFWq+O91DqT9MWjZltbcu297KFm87WiBgbHa2D6fjX8fFITrPLi2XbXcPikfv36la5bt+5bvKheH6zmDRjfsLS0tM/R2JwhG92R+TD4a7+IbGxHeoJ+//33IyaT6TWMy6ex8YZSVVUVt337djK85zZ9DRUxaR07dhR37dqVGhs/gw9gLwe+9S4/bz3RLVJkDgoVQpAPb1isSENBumaXVMM3hQBlCqsFTcJMLsoWQ63G9nMSH2DSAbvrpPMGDHFcLrbyC62DgVt08NQOIfPCDv4XXBR+5dkceeiLpVaYWGyGxxowt4aYn/FZchibpYSnSi3wTqlOskXGLBKoDQ3qTm8q8B7ubDTaX1haYN3/2DYp9Ink5oV42iiT+5WsnAqugeknATYWay0FYqtXS87/iS2Fmnk/pMqd927XuYbLfB3qXSWANmF1zLxCM9m9mhhln3oy8PutzouMH/+e5zg5KEpsbh8m8rz8OLka+VroF8GHV/dK4ac0JcxOksKQKH7DrsdlIsN2ndDYPJFigZn7JElBC2u8WjF3JakX9Z9GnLXCowed7BCxt7017FxCrOce2GeBqHKAzGrDQi6KBuGu4fBKZF4Nmd9y2223HcL/D0A1OnfddVfvGTNm7Bs3bhy7KSD+yi8iw2vz58+HXbt2Lcf/Nyr4kLHdw3FxcbmDBg0y4q/cptELiVHU2PgZzPcgtcV5eLcEYHCcHB9SP6yAII3/Kh60CeHDO8etPIHesRMrzoCfpOxvDlcavlucqXSO3G1wLYH3tseGrfBrYBg2ap8dljFrs1U/clH4BbyG1x9XWp557qwu5YFcPYwv0DdoJRT5LFkBNTxTAd/j6+bGOqMoRah7hAu+xXC8Rr8s8iLAMLLvCrmPG9CQkmtLzOf9ey0wK1kimpssveZusQ3hRLlh3vIMlfOhXXruXnKfDk9FlhWT4Y9NIgB8MbmA98AoLqoGg8/mDSar440jtfYzX2YDdFtHjp3Axt5NvFcTe59juu7bLINtlQDFUoAlp1QwNIrnMnNeGpv2a4Vw3w4NfJCqzTvON83yxcRhOXVDjVlVbIh4ZrfEPiRO6bXpYucehfGgU5gQHk7UqnaUG06RcuSiahDuGg6vRPZbIccdLFq06EhsbKxfx1M9JTg4+Lpffvkl6dVXX2UP1sRf+UVkn5zNmzcDj8cLxf83KnjTkaGNPhMnTpzZvn37GvIrP4kamwDAGI2DyqTWlIgKgAExMtfbi7uHuAEilUR7fGvuFy2HB7dItx6rttyB90VAT2cPBEtPKb+Ze0jquJO8ZZO5G95UfqQ3gDSaS6thVIIBQgt0cLLOtICLwi9ozPbJpxWW/O+FTt3wDCU8ktWwXYZJj82oDDmMyFLCWjXjqNHZS20221gu+BaD2er8NUNis4/fr2dakfkhDTAP7DDKah70iTfA0GiBeEy8+FW8Z/02VFgmtsyLKdQ6H0msN8nu0+GRyD2F91PHMAFE1gLo7M5SrL+83joAvztTqLdVrixxOu6OV7IvJew+Vu7i/gex5Yd5ao0m4bkECZMtMtu1JocjtlAL98QI2PR60yvCrkIkvZ3rBTA/z24q19pqML3vcUlvMPjd2+QmR8KqCqeyb7SQaYthe7sggKStzRohPJBghmlJ8sJVRZqn8J7xqkfJXcPhlchp1WgqICsrK1Wr1Q7F3zU6p06duiE+Pj7l008/9evp2ZMmTQJyVpXdbo/Fgg7IoWEeMPLGG28s69Onj9s0eiFqbAKAXG4cmFZu2PNrnhP6RUldEwbdPMSeiq3gsLLoFqOAh3ZqYNwmvsebVDU3Ht3I+/iRLUJH/81a11vdFXn1SKQRCsUy/bMSnjpoh6P4Fqs0O3/novALxUrTjESh0TpfBXAfGpSHPTwTinyGPXwyUwGPF+phZokW4uS2o4yDeQefhyZ52fMWrOfIfJtHy3TO4E+Pa+se2KKC1g3cLZcYmzZhYugXITQsKbYmmwHexnLoxkXhE2Kdbd72czrn40lG1zPm5dAHK3JPoTnquEoAy84B8PWOfMy717tYS5TmOTlSJ3yQiW+lpKeGTL5uYGNPno9WoTx4cJsavkpVlF1QWZdimnZuP6d3jt6u5IyN++9eVZgOkp4O+Ax9WghQ5wDAazKfS3qDKapR35RebSj5pRygzVoR2zPlNl4PRL7bNlwEn5UAxJ/VFp4QmLx+Ztw1HF6pV69eEBMTA0KhkJw/4dVOmr6Ccd+QlpaWsnDhQjY9+CufRXp+pk6dasrJyTmH+foGb64m2en1zTfffOKFF16o8OMuy9TYBIAjF4wD1+dq9sw9boNeZG4C6TJ28xB7KtbYhNRCv1gFvJaigwWpisik/JbVW4P3AjkT7Z6pB5Srr4/gOTtGytmGyGtjgxV60FIejNml1R6oNvl0lIk7fj2nfGbBBbV4Nr69j8pSwDiUp8bmcdS9J2UwrYKBGCVAqsS4jAu2RXJebL0ntcJY8n0RNtJk1+EGNFzsvbukCgbGyGFjHYDI4NhnYBi/TFPQWRwLU0UMTD5sc/WK+mps0ByRQyl/wXyelVrywdZwY4P3IZk2cNdJoTV4/gmV9b4d9fN/Gp42Mqeu0xohLMBG/kC54cQFuZYchjr3kMAJTx6yet1jQ0TMKbmOL6VbIU9qdmC4X3NZaBD4vcGneaY3vjuhLn1ir9F12joxZG7ivKbQcLUN5UPvSKHzl2JHTbnCGoltrddDZO4aDq9EVtqQCa42m40cs9+gpVn+AgvihvPnz6eEhISAP3o2yGqoYcOGkWXelXFxcbMwX35b0dBQfv3114lz586tILse43/9IWpsAsDH6dL+76XIEp9MNkEXcshjQ1eUXCF2nB0rx8EblPDtCRNsKdSsL5VCVy66FgHeC8NQW1ees4s6ruIzrVb4sEoMG6FWa4UQtFYJPVbzc384rnoew/brRpnPZstffCFXLn7uIsDjOUrXadkeiDU2aILuQmMzu9IJ6VoAvdX5Gxdsi4SxWO7QmR254dUA7GZ9aADcXhc3Yo0Nmo7ro+UQfAHgFM+0v9Zg8IuxcTiY+ceFVnjmsNl3Y4Miz1h7bJh/zAPIrDPlG422Bhsb0hDjvRi7T+gUjN4mdXYkp48TE+Emvn8SW2bkmQ8hmxxKYJsQQG1xHMZwb0a9k8ozw1NHLOx18CrPbI8npmlJNUw5ZIYTApMNw/2Ky0KDwO99lCm2Xnz2oN7YDcuODLl5MwzF5hcNETkTauxWof2rk9rFZOdsLE+vR0fcNRxeqXPnztaFCxfux8yS02n74O8aHWJsxGJxSmRkJHv4JvmVLyLGhkxEfvvtt89Mnjw54BvyXY3o6OiJCxYsqCC7BuN//SFqbALCho6Do3nbB2w1QNsIKVY+7h9mT8U+9Mtq4NZNSggpskEez7Qe7/OWZmxGqSyOyigBQDt8KyZvm6xBcZPfawrLo024CHptMkKf1TWHg14677e6hpQrpnXqJoVtyxN5av2YAiM82YBN+djP5ajg0UIDzCw1io4q7WR3YTJPoElehvwBpn8Aam5EmfXo/ZtEzl5o1j1dyss20thA91ovgffTrBCWrdq9s1TanwvaJzBNj+2uNK29a7uiJihMjHHx3abBU7mMDR++yQFIq9Lny+UNNzZ8vnFwmcRcEFEHQMqpfsKwx8aGmA7yvK/ARj5GBq/tlzuOSBzkoEoyhHcdatSuCkP4Q7uVdR3X4XXwJs+XGZun95thX4XBpjU6vDI2NVLzbwdFAKOTrK5jIrys69j0oDkde4CBpYVm2HFOM5eLwmvcNRzeSte6dWuvJyH5A2JsVCpVChkS85exIUbi66+/PhscHOy37dq9IT4+fuJvv/1WgQbLbVq9EDU2fgbvv56/5uke6RUtPhq0Xgmt1ondPsgNEVvRLaqCu7aqYQ++vcmM9o1Ytn6Zp9BY2Gy2EYVic+HPZ9DYYOPRkLf+K0UqwfZrRTAi0QzP7ZIce2W/xG+b8uH1629zMgnHrQDPlhjhnpOy/zcsHogMQ03M08AbVQDvnVHlfltquJ8LusWzMkv99ZwDMltDJ36TN/GukRKYuM8I7yRLdn+b7h9jQ2i/jj+03aqaY22itdAKza67+D1VvbEhZ2OllOvzKxtobPCZ7JPHt0xZkqktfPmgBdqvRgPvzf4/pJFH4z8xxQZxpQY4I7L8ZZjong3CO4dGCY5fv1nPGvyG9AbVi/T0kJelx/eZIPaM1nZeYmuQscHnhOxQffOms/p1Hx5Wwy0bVWz5eXpP/E1oiNqs4MHkFJMejdZ5jckxg4vKa9w1HN5Ki2rSvTWIsVGr1SmxsbF+MzbPPPMMLFiwoDQyMvJh/F2TQYzN77//XkHSg//1h6ix8TOY5xfTBZa0CSlGeVAIOcHXx435UKyx+bMS7tuuhdNaALuTaXHG5rzQ+mBCqT5v7ikntCMVPjaM7vLqiUhj0Qkr9OlHbPBbujItttB/CxWwXAdILM6D5IiCZ86a4J4TUtaweGJsyGfGZsrhkVw1fIcGdHWlJmtNhcbrgyibGwfOaz5emqm0jUogq5C4oR8Pet3IW3wHNDa3bdfDiHjB7tFbJddzQfrOx6X9e62uPdxzo+t4Dm8a+XqRe5Lcm3MzGNh1QZdfIjI21NjMypNac185atD0IUOlpPeigQ09ex4XmaOC9/jHOQClKjuYzY6PuChc/MEbNHqjMPX2nSZ2oq03w1HsHDU0ImPwWgZnqGzHyo0NMjaY1+E2xrlx5UVH7YBYIXQix0R421uD6W+H5XXTRjU8naDI2F2um4rhD+Ki8hp3DYe30qH+dT02U6ZMgYULF5aiWWpyY0N7bFg1W2Njszm+ypQw8PpJcFX+ZDWEm4e5ISIrS9qtEsHtm2TqhFpbEpbrm6gOXJQtgtg89YO/nlDmvXjIBm2IsfF2giGKNEBdsRH7MtMJCSXatHN8i9+MjQGgf4nWloB1LDxVbID7T3neY0M+M/K0HEbnqGGpHOCY1JxbY7D+a3psBFrb1wnletsksgppMd7boR4aG1SbSCl0jdNC+5XVW4KCVvnt3h29hT/03g2CYzdsMbgaeW97DFD1xua9k07YVKLNz65rmLEplxh+3i8CGJNic+35443hWF4N7dYIYcIBG6w9Z1PLzM5N+KxP4KJg+fSQ/M6Ze+XHx+41s/vRsNfBTVhXE2tsVtTA/bsM8MMxhW1zkbZBxkauMT5ULrcIfq/Aeo6slCNnQnlwL7gTGa7rul4GH+YDLMtSHPrutH9e2tw1HN7qX2lsnn32Wfj555+psWkg/0Vjw1OZP9lZqrM9e9DqmtznRaVzudiKeg0frseK+644QfmzCaLJeI+3R7WoORuTtvPueWa3JGd4ghlaE2PjQ7kQw9g9XAzLzwMUi8ynLRb/LVSQGqB/htKaEKEAmHTGAA+gUak3LVcamStFPjMCPz8mVw2RGoDzOmuuFeBfY2zwef66QGqxvXzIDEGLPDc27GfwegWFK6H7at7+748o78X71y+r+l7ZLRs6eYfo2H27jOxbv0/3VYjL2MxOd0B0gSY/rdIzY8M9j33D8jUr3j2kgps2abwalmF7m1bUQa9IkfP7HLs6rda8xcwwt2LYf1mFG5mvu/Pn48rjLx22QqdwzLMXLwlsLzDm984deng3RWr75aTiMy74q0LqHVSPApFxakS+tnraUTvGT/bo8fBeuEJsnpfXwXXRYmdwqVN9Xm6KxfusHxedT7hrOLwVNTYBhBqbS2q2xuZYme6jkAy1cdweExqbWq/e2i4X+T7psXlgrxWmJUrOPRVX2eAJjc2C784N7RFem9013git1gq8WjlRLzJJsec6CWwXA+gtjly8z/y2tUQpGptDYnNCiARgYpEBHmygsSHnSY1FY7PdAKCyOHOxPvpXGZsytc02PY0sNW7Aihxs8MgpzUHBfJi8Xy84h8YRw/LLIcL/O64dOme/7NgTSWboQHpsfOkJxO+2WyOAN4/ZYV22Kn//BY2nxuZOqckZ+kex/fyg9QLoxK4Och/HP4k1Gvid7uuVcEuMSPf5afPKSpFxJBfFX0ivsdy5oUh7/MMTDuhCVqmtaHivMBsf5vembXp4IUFse2uvxKPJunjdOqDmnFE7T84+rNENWC9hN/tjh93cxHM1EVNDvtczSgXD4sSan3LNyzHsMahOXHQ+4a7h8FbU2AQQamwuqdkam5WnlR99clBuHL7DwHZt+2xs8A2UdPVOPmCDhemKsqgs+eNcVC0CfB5b4X1w79J803e914sqg9Yo2B4ob7utiVqvFEDPcIE97JyNbKL2C4bvt+Nb0tHYbOeZEv4QAkxAY0N6YOpNy5VG5kqRzzyIxuaxPDUkWwAcTubfZmzmC2wA72OuglZwPTaeGFRibMi5UYuq4MMsgCq9k2wI9ykXrE9sKdQOXXJSeezVI6T3Ao0N6TlwlwYPRBr6tmhsyOn5v6cr8uMKPDM2tTLDg8eqjTXfnMVyCUUDR4Zl3IR/NbHP+fIaeCAZ4IODMtvPx5XTueD/hlBnufNYjfH4j3kMdCW9VPg9d2FeTayxwTh7xcjh4W0ix59F+jg7wzyB9+tVD1IFkHbVW+ybsnUAj+3Vu/bSIWG5ieOqIvcEl+cxBwG+PKY0L85Uv8xF4xfcNRzeihqbAEKNzSU1W2Mzc5/kw6d3io03bsWHHitK8tC7fbA9FBtGKA9eS3VAZJ66LP2CvqUZmzYOh+PnA3V2xcidGlvQEmLUMG9edlsTdYvVwJD1fP3EXZKvMPxeJA4uOp/ZL4X+MbWGhJ/4wO4cPDLDc2NDNBo//0yBBo6iAWCYf12PzWcVGpvmsyyro9Nq1w7EHhl30oiR+3hxNcw64YRCmZXsm+Lzcl5CVqVl6MZC7bG5J+3QlRgbXyalY37aoLEZn2SBOSmS/J/S5Nc0NpiPDuE5mqe/PKKofDzFjuWBxsaLeXUkbjIM9cIhi33rWW3dRaHxHxt5jHPYebn1dHAZQPcIzLM3xoYI66bWqDvixbBd6NThRTmAYd/NReMWpry8Q2qVfv2yYifctlntmkfoTR1Xf08E18Krx+y2/VXGarHR/jwXjV9w13B4K2psAgg1NpfUbI3NDeHVb90Zyzf0jkdj482bzOWqf9MNqYO5pxk4VGkoE6vNLc7YSPT2tQckAGMSTa4Tvb3otiZiyxMb0pu2G2HSDpF24sa617ho/AYxNuvR2CzwwtiQTfweyZTDtCItnHAAOP99xubeLKHphzcPa0pv2qSEtp7OlbrM2Lx2zAYZIoue1A1csD5RKbMMPXDRcOz7bCd087L3ol71xuahPWZ4da8k/6PDVzc2eG3bWR3MjK1l1qSx2+WqXmsleI82bIM61mDgPU22LxgSK4OpKZrMtGrjHMZs/sfVdMR8CPX2omgxGpso11457sL2RKR3qU+MGHZpAKxOBq3StXdbfjVBFDo+UQs9YhSeXf8rVG+q2q0RwfWREnhpv+Z0vsT8Acbtt20bCO4aDm9FjU0AocbmkpqdscH7rrPayjzw2lHVyn6RfEvHKHzouYfY3cPtkUiDgBUPMTa/nAcoV9mEAPYnuShbBFgubTLrjMEh+Ua4Z5vG+zc8FDFEZKhhZIIJvj4q04Vnq9/lovEbxNhEo7H5nw/GZvoZLZz8FxobF0mdH9sq2Ptgohk6rBN7ZWwy/WhstFrL0OM1xmM/5TPQnRgbH/dHIsaGTHCfsluSP3P/tXtscvimNWsuAty2VctueNfQe5utI9CY9IxVwuxMgN8z1Fs+O1B+1VVjpI2TmuwrF5Xay3pGCh1tyJyeK8L1VKS8Oq4TwtpqcvAnk4PX5T4umr+h0zH9dpXpJ47YKkvqFi6BtuTEcry27sK9mtg8Y73WO0YFM04C/JAm2zQiMt/vxxS5azi8FTU2AYQam0tqjsbmFqnRvmVZmUPaPVLIkMPr3D3UDRWZGEiGov48xzAqq+MCxtOiemwIMYXaJV+ma+AW0nVN8uOtscGGJ2h5LUzcb4GwXLXxRJXhfS4Kv+GLsSEag59/rlAD2H7/K43NnRG1AybuEKfct9sE7cnQTwONzRvpdsiTWk1YLh9yQfqExcIMzeWZjv1WyEAPX43Nqlp2xd7tO0wwbqsof8pO0VWNTSaP6fTtMXnU1KMW6LNB5bq33YR7NbG9kMtq4IZNSgg952DOSC1RWG9ey9i0VxiZwU8lKn4eEMk3dUGD4O1LFIm7A+Z5OdYsQpMj+2rGpkBinhhbrMl8JsWsCVqO3yV1nDfGhuR5aTXcGId5PmtnCsWmCMwTNTZXAwuIGhvPRY2Nn8C83l2tthWvwwaR7LIaFFzl9qH2VGxFFVYLHdaKoV+kED7NNKVhW/khub+5KFsMU3aJf5mQoIC+cWhsSAN3RV49Ets4YsOBb8WvHgc4UGMFqd7xCReF3yDGJrLakDCf13BjQz4z4rQMJuSp4YCVPTH5X2VsMC+PnpFZV7+bpq8aFCuHNmQHaU+NDTd5+P0sgDI9WzYeLS++FhjO0HKF9djyUoCexGj5MiyDDW5rNEeDt5jg3lh+/oNb6v7R2DAWZliOwLTgzcPG/H7rhNB+jdCLzfiIeHD9ejmM3SZVRZfZYi125jksZ4/OR7phTe0bw2L4hj7ssDc+Vw2Mn4gYQWJsyI7gBVJLtsFq/Udj80Wq7Jl3D0hNow4C23PKXvsGGpv6PHcLl8GwDVLFmlIbOXLkWZTf9+Vy13B4K2psAgg1NpfU7IyNTgd3nq42nvpfAUBnUsH6MNZPxBobrDh6x6pg9FYpTN4pbnEHKeL172ZlmHue3KuMuy5KDB0iZOxbsdfGBt8Qg5bVweT9JnVqrSkbn/WXuKj8Rjoam3ieKeFXsioKjc2IBhqbB07J4OFcNeyz/PuMDebn2yqNjfk81wHtyXUkJhV/ur1el+uya/fyIbMazRFZou+XegfDuUNtcWZuEgD0JkNjS71/oSD3ZetwIfSIN0G/tbU5Qf+7OIyL5m+c4Wme3lSsEU0/5mR7Eb3Zx4U16iF18OQRgP8dV0rC8zVPc8F7xLQEyZwJW0XGIZt1bF3hlbFZgcYGTdmX+DSlVOizq1V/NzZ4D7dVm+Gm15OV3wyJ4Cu7xmqwrPB6ugnvWmLzHFoHo1IAZh+QCb89qgjY0Lq7hsNbUWMTQKixuaRmZ2xOVllu35ivOUH2lmA3zfJhdQYR+2aDleWgTRqYvk8Bnx+U/cRF1WLA6z/a4HDu+aHAJm69ig+tVvo2PBe0Fg3jWhlcHyVKDS/UPInh+2Ujr8upMUD/NJk5YbUM4Mkz3uxjg2/faGx2mwDM9n/XUBTmZV4t5mt2FuOa++VJbw0RafDJtVsthwERomPRRYan/HXtMJzbHQxzcpcIoA95oSA7/rpLg6daK4Q2GwzQOrQ6L+i3ynu5aP7Gl4fFz7++V6Iavtfx/70X7sK7itihqxU8+CQf4CTfzJPpbOO54D1ifqpy7pt7JcY7txtcJtMbY4NpJ2davX/SCfFFmuxsvhtjo4FeuTzj4p9zbBV914ls7FExbsK6pojBxRe+oBV18G4mQGK5oaZManuUi8bvuGs4vBU1NgGEGptLanbGZuwm8XVfHZKmPn/YDh283A30crHGBs3RrZvV8NkRNUTkqv/gomoxMIx9ikBvUy8i266H4BueD8MEpJufnJTea6MWeqyuiQ8KWtiWi8avkJ2HM5XWhEgfdh4mPTYxWoBqvT3XYP1X9dh8fUZmsb2canHtX0J6azzppSANGjnlfr0agv6o2ILXrj0XpM9gfd8X0zX3lzOWwx1X861Bq4iBcpMGD0VOCA8Kk8KQWAl/80XzSgz7MYzjL3VNrkDz5I+ZptibokSazuEy17PqJqyralUddEYTdXOUGH7ItuRJLMz/MK4GbTS5+Yxm7oI0hXFUopGtK7zaJA+NDdltefpROyw7rcpOOGv4m7GZfIDp8NtpRdK7aNN7kkUR+Bx7VcZYTu1WC6HHGgG8m2bJrdDY5mOe/XYcypW4azi8FTU2AYQam0tqVsYG77meG0v0T76aJM8ZvssAbckkRi/e4C4XW1kuq4G7tmrgjwwdHC03tjhjY7bbn8oWmmu/yENjQ7Zd93GPkc6REhiVYIAXdop2PLVD05uLxq/IDMyAArV1f7wB4OliY4PPinoow3WkAjkrKvVfdlaUzcF8fbTWaHs2xcROBGbvcQ+HX1pHSKD9Bg20W1u3K+jHcr/1tOGzR7b4b9Mrsm5OhzU8XRt0lO7i90jEgJEhtj+r4NFELZMtcziwDltMwidx4b+7kSMykipNe788bXb0jRSzc1Qa2sizzzaagxviNfD5SQuE52rDMOxOJC9spjwks844d22e2vhEErfLuTe9RvgCRjYlnHTABp8flmV+d0z+F3NF8ry6QDNy9Bbx4UHxOmhHjsbwZPjxCpEyIj1U/TZq4NlkPXx4SBmKYXdoaJ4bgruGw1tRYxNAqLG5pGZlbDCfM0sU1lNvpRpV5HDGVmHYiGPl5e4B90hsBYtaUg0jdmhhw1kj1KrtLc7YVEnMkxIv6Kpmn3S6jA2Zh+Auv9cQWymurMG3RSm8ecQMfx5X7tyUob+Oi8av4LUcwDM5DiQ7AJ4pMcHwkw073XtUpusQzHkigI21+txj0n+ejNnSKJNYvt5QorWN32vkjlRwf72uFGlwO6CxuWOHDsZuE+8ev1/anwvSb1wXXjPz1miBtucmvcucePP81RubPyphPJqFAjS3eD+E1Te++O+nlGbn/pVnndoHdxvY4xfIpGi3YV1F7LP9ZyU8gGEk433CV1mD2Uw0kDq5be7Ws1rTswcsLoPljbHB75Al7mOSrPDqPknG+B3Sv+yfozHYJ++7oE+ZkKCTtFrBx7R7sRKqvj5bXAX37DTAmgsAJ+r0S7koAoa7hsNbUWMTQKixuaTmZmwWVdkAZp7i5h6QytHdA+6pLlUE1TAmQQ+Haq1gdTItztjsK9FMWp6prHr+sA0rUDQ2Xg7PXXrbi5bC9xl22F2i3XmmMjDGBuuPHiqb47NopS39sXytaUSuljUsnhqbR7Lk8GiuBubwAH48p8r8okh9Exd0i2dNtnLOt8fkNtIryc6V8NTY4HXvFimB51NM8PVh2e6FOf43NjMSJO9P3CbSsRNpvZxvcum5W4TP3W4dpNTZwe50XjIdWoPjrWKJBT7LBddwDJkI6y6cq4mkC198BqyTwHNJGkWW3JmM9cdreN81ePdsvdHxZRrfAa+dwPSQ/aEwPW7jvIpIXdV6NR9u3KyG1w+qK48KbP/DtFxaDba7WP320iwtjE/Buo0MPzagl+5ykZVQnVaJ4cFtSvm2i+YkB+N4FeMJaB3uruHwVtTYBBBqbC6puQ1F/XJc7ICnDpM3J5excfdwN0SsOcKKZNIBE5zRYAwAJM8tii8Oih+fvU9SOXIvlgu+6XlbLqyxwbIYEC2DkHMAuXzTHr1efz0XjV/BciZDG50nFajeHJmhkDx+zglP5ig9MjZEZJO+J/M08NJFJ7xaqCpcUKF/nITHBd8iwfS3RfX49Jjip4k7xbaBGzUemwf22oXUQO8oKXx03Arrc1S795ca/G5s5h+RvT9zj1h353bfjjKpf6F4aJcWdldYQWt1skNRWJd1O1Fj+XJZpsr8+F7z//eQNLCRZ5e9hwnglWNOCM7WnD9WaybnM3m0vPtK8Htvn+CbhS8dtVjZlVkeGs3LRcqJqB0ajzfSjI4StUOHeV1Qn+d3Dyq/fnSr2DKQLCn3slyDQtFwYZ7v32ODl/ZIz/6aqRrvbZ4bgruGw1tRYxNAqLG5pGZlbDQG20+7ywzw6D58k62fVOnmAfdU7J4UWIm0D6mGd085QIQ3NZblCi66FsN1K8rH3BfLrxi83Yz58nIlBYptHBdVwQ2xCtgnB1CbHAfA4P/G8XJuSxVOQqMifK4cWGNzpYH5J7kMkBJG5Wph+jmzIlFmO6h3MH4/+qExwXvvRtTvwaW2wgGRAmeHMM/3bGGv3fJquA6NzcJcJ6RWGHbXSMHv1y4qU/3+N4dlOjJExK5S8tZEk4Z+STU8uEMDG0tNUKOyLcC8D0B9uUfgzB69TWLrTVZ4EVPT0Eae9AiRnpVVAkDvBOUqa5lCZ/nHJeXXAtN02/aLxjlDt8hyg8KlELQWr4u7eK8h9iVqWRW8cMwGFewZZ8yvqIEire2rXwvsOWQlVNtVDd+nhxXJM77stcY8f1IEsOW8rrRQZgnYhOHLcddweCtqbAIINTaX1KyMTWGt4ac1+Jb+0C6df4wNqTRD6+DGWAl8dcKoPq92nMCyfIuLrtmDz2BbTO9932fofhocLRR3jlJhBcfz3thg5dg6RACDoiTmTVX2PAz7B4zjqqcQ+8r3ZxWvfFqsEs+sAhiHRuXxrL+bGHcixoZ89r5TUngLG69EPUCR0rqIC7ZForVYhpLNJ0OwLNrhmze5x91dJ3dijc3iSugfLYfNAkCjYD1kNDIDuaD9RspZw/uLT6p0j+41cSuEfDM292/XQkSRAc5JzR8pjMZBtWrrvggeQJcICfv3Bt/LxBSsrIHeETIYieYrrtpZjfcxmUD7j2dCecTDp7u1Cq3Z3j5WA63WSdzHfQ2xxgad1vgkI5wU2Yix+aBcYRyccEGfPK8E80z2B0Jz4u67nqhNqAC6h/GYebn2c5Uqawg+u349E+qfcNdweCtqbAIINTaX1KyMTVSeasE3xxQwDCtDdu6BN282l4n01pADBicmm+H7Y8rCpPPmpwLdkPsTTGtXs5NZvrXGKbt1s9zeimy/7mWZsA0jmqLuG7Rww3q+5OUk2ft4X/XBOAJ6/Q/wddOiagzyT7AxfjDTdQZUQ4ajyOdfLXPAz7VOWFttCsE0kxUgzeae9RRMc9v0GuOYtXmakjdPApBzich8J3fXyp3Y67ekBm6IkTL7hIzN5mS2YVn4fRgxs9b8Pr5c6J7AZ4YdliEvB1ekxROxxgaN273bNBBWqIdateWHU9WG+5Znqve/eZxhD6v0ZvNNdogL03XnFrXz66MK875y8++kHLB8fVv6vpDX++boup0D4rXQ1psVS6RHhRibRdXwcIIeDtRYiLH5Zk2O+v4XEyQHHk62QzuSZ2/m75CyxLqsX5wWxm4RwweHlX9yefb78QnucNdweCtqbAIINTaX1KyMzQf7RN9M2yeFG7boXN3gvhobsrfEWiHMwoo0NEtxeslRYYs6RgGfwR5yvW3XXhnAUHLwJdk0zVtjw24Vz4Obd5hh3BYh/67w2ie4aAKKTO+YcUphtv6uBbj3tBzGZMg8Njb1eiJfC5PzNRAqtecpLLaf8XlolC54f4HXsRWm+YVCuX3b9BS15IZIGZCJr2QPFnfX6krVb/PfO1IO92+SaKMvWsj2+c9guH6fc3ReYn1/Y7FONznF4ruxWVYDt26QwNIcDSiM9tMXFLb4lxPElYPXSaANWRXU0HuZmAeygipMCr2ipRfnp8t/zSiR38kl3Sde31s38IWdwoSRu/TQMQKNTUPzTdJG8ry4GobHy2DLOQMYLM6Th6qN8Q9uElZ2XS12XXNv8oxpISuhRuxzwPJiO+wt037FJbtRcNdweCtqbAIINTaX1CyMDeavG95v939/ShM1dqsYenHH+PtsbLBibr9aCF9lAxys0GeXSfTDuShbBAqG6Z7HM24IOeOAGzdhmWBD4bWxIW+TZAv2RDN8dEAq/CNN/iIXTUDBazv+rMaaMk/oEN+fpYJHs5UwyY15+ScREzQ6Qw4js5SwWAOQKjPXSky2sVzwLYZarXXRXh7AyAQDO8+pIRNU2WsXUgf34bV7M1kq+uSo7DkuWL8j0TneTzhv0L1wEI0Nud98MTbBNXBjFB/+zFBBtYaBNKETHt4uZfe3YcPFRtvdd/9JZPJsm3Ax3LSXgeFbRKeHbRbdyCXbZ1aflg+cf1SWMPWACbqTM+q82FKBzfPSargjmg+RhVqowTzvrLDBg1swz+SlpKG9QPXCe6VjCB+e3KdX76sw5Jgcjte5ZDcK7hoOb0WNTQChxuaSmoWxIabGyjgT11c5pDfHilyHApJKwt1D3gCxJ+6GCeD3MwClcku21frPJ+42R3aWQteYQk3M5yfNMGCDnO2697ZM2JUY2Dg+nWKFFRkqYdI5nd/Ph3IH3rvdj8sMD0w7o9k5ocgAE4muMC/X0vgsOTyWo4S3BQCfnVUJfijVN0pvkz/5OUOx4u00E5ChDnbFn6cGlbyxk2sXXAtTjthhbYFGcrDSMIUL1u/gM/LBsRqTYfpRm2sODMbdUANCxD6/K2rgZmzkfz6hhB3nLfDtSSMMiRHhc0nmz7n/3tVE7v9Oa0Xw1kknrMxTH02+aBzEJdtnjlwwDozLUyV8dsIKfdajEfHiWas3c7fH8GFZthoSLlrg83QDDI52Dbt5fM0vEzGApNd5+A4DTE2SZ205a3ga68u+XLIbBXcNh7eixiaAUGNzSc2lx2a82ubkx0oBukWQ86Fckwp9NjZYyZDdQEMuAsjNjmyMp8Vt8vb+fkn48ykG6BWDxoYscXWTz2uKNI5kaG95Lbx+zAEJ5/TCGrmlUYxNPZ+fUa38sNwGk0vM8EimewPzTyI9PJNylfBooREezVMr5pZZNoRWGZ4r9XVexWVgfdcT74/38edLKL8dM8FoeL3TqnQfzzxiPHXdOgG0XytumGkn146chbS0Bj4qAiiUWqwaq2MGF7zfwTL49IKGgfczwdWzRDbO89bY4HcHrefDW8kyeGOfFG6N4kMH8jcyT+aKz19TbBok0DmMb5l91JSUU2eardVq+3DJ9pk6uXFgWrk+4bdcB1wfhcaGLEN3l46riM0zGsEhaOZmpchgZjLmGU2O13lGkVVWHddJ4MsSgNhizanE8/7Ls6e4azi8FTU2AYQam0tqLsbmkWqNvfT3CwCt13q3C+nfRCoZNEi9osWwBQ2Txeksxnge4KJs9mBau+fJrA++sl+ZeNcWFXQiq0jIkIS7vF5L9Y0jvvV/kguQJ7aoLXb7NC6qgMPjMZ1OyUyxcVqAKeescO9JmWufmsvMyz+JfOYJsllfphzuz9bAK9UA4RqAvULzpmwF052LwiewrutlBXi7XOesKFXYorDsO3B/8gkMp1+BzPFuSK627tn9ZrwGeB0a2gOC93HbUB70CBfAj0UOFRr0UxjuJC4Kv4NhT7uosRVOP2LWBi3F+y0U0+CNsSEKrYVua3lw70Yh3ISNPTu87MVwDDvHCL87YLsZRm0W2p/ZJZrLJddvGI3GQRck5pTICoBBsfgSQXqV3KTlamLzjNer2zoe3BlLVh+6tmbwpqeGiHy3TUgd9IsUOpecdQrLFZb1eH38vhLuWrhrOLwVNTYBhBqbS2oWxsZksj2cKzCVfJ8PWJFjZeCPE72xImy7sgYe3CaDY9igOhnmDJZjSzI2EwVGx8E5OXZJpzUCaO3NZMvLxC7dDamFH84C8PR2FYY/lYsq4GBcXYw2Z2y2A2BamQ3uPCFtkLF5LEsBIzJR2Wr4QgSQg5VTlda2g8xB4qLwCfJ8FRmY8/8rdMCUBOm6DyN9X22CSWylt9i+2VnpuPD0Pi30j1S4hpRIw+6hUWAbRTSkfdfLYOp+LYQWGpL0ZvvjmN6AvbVjuvsnVBqm3BAjSQ9aI2NPE3eXNo+E92sbVCfMbxtiTogxb+g9TEw5MUTBNTAuxU7m61gTz6tmc8n1G1img+RGx/6tfIDBZNiXbDfhLj0eqA2muQOqNf6brYu8eG7Z72F59Y9Tw+jNIuOPGfpFeqv1Hrw+Ad+Q70rcNRzeihqbAEKNzSU1C2NzVmB6eEeptuT9Uwy0WoXGxouJe5eLrRSwEekXJYGX98ic+/nW01iG35LKi4uy2YNpnVWhtjq/RCPCjs/70ouF5UFOA+4dKYY5mZazErNzKYbfaMNyWJe0x/hezzU593x0waR+vFAPD6NZ+ac9bYiZIcNPxPyMPCWDcWdMMKMK4PUi1YX/1VrXXrAyaxirY6avlTymqdsFufWN/UImc8EFgKGb9RD0S+XioPHpPg1FYbjXSXS2ubtrmeIPM8nwKjd51N21uYpYY7O4Cm7epoPN2OCe5RtjuCgCzML2bVZUb+4Uq4E2mHZ3afNU7LPoZU9NvchRBZ3DRPBEorZi9wX9WqXW5vf2A++lHjqr44M/i60He6wTGYNWib02Nux1I/lGufv7NXXJzFXDwwcB/ndSBevzVW9wSW103DUc3ooamwBCjc0lNQtjE56tGfHLCeWZ54/Y8cFGY0O669098B6KrVTQHN21Qw8fHZTbwrKV32MZtqj9TxwOx4wMvln9TgYxNljJeVkmbCWLlWT3KAU8tEMNL+6VRe4v0fTCsmjwmTq+gPG1OywyPBNda6j7WgIwIksJD2fI/7JCqr4HZwJqXKYcHkXjM65ABzMu2uDXSqMcv/u/HTz29OaOJDwu6AaB3yPHGvQ3osk9WGZ6NbpQc/GNdCvTKUYLQSuExEgsDVro/RwbDLun0MC8n1hh4s9Is+CbOzmhntyTDbx+5B5eVQftQ3jwUILafljilDudzsXkPuaiChyrBX3ujOXvGLJFC+0j0ZR520BzYu/BK37nqYih74jmasw+K0zdI923/KxyCJax3+9dDJMcAdK+1zrejDYrayWtorVoMHhu0+SJfMmzy9igoVteB1MOmEy7zunLahWWRuthvRJ3DYe3osYmgFBjc0nNwtg8v5U//I0kSRE5GZc1NtgQu33gPRTb5b28BkbvMcFvp5S27UWaOVxULYZqpfW1nef08ldSba5hJC/LhK1gSe/VBhW8nKKDj1OkK7koGh2x1jb6gsbKj7UCjM1WwZjTsr8ZG9JLMwZNzb2n5PBIjhp+kAJE8i3iHRLL12Vq881cUF6Dz9JI1KZ8DbPv/f2K3Ak7ZTCInNm0mmwxQEx1ndfGBuvMdhVyy7cbypnil4+YYGCc2tXbRq4dNlburo9bkYaNDFutrIOR23Tw0WGVIE3EHklwH8bht4nN/8Tr+yTXP7NDvOuB3XroRJY++/g8eiv23l1WDX1iFDC/GGDnOe3ugBu7Pyqe7rGGJ+y00cBuaOm1OfFBxASTDQyHxCpgcqLyZFKZ/jXM9xAuhY2Ou4bDW1FjE0CosbmkJjU2eI+1xrw9uKfa8tOLyYq6wZvV+GB7f8hjvVhjs7Qaxu8zwYZira1MZmzUDa38wZ5z+tcWnVbKJ5AdYMmKJl+MDTaugzcq4ZPjBogoUIfn5wub5DBJvNZ3me3OkL06R83cGoCJRUZ4mNuw7ynUo/jvUZkKmFBshg+EAEtlAClG5kKB0vwr3iu9uGC8BuMfLbYyEccEDlhRATCC7HC9Au+34GpoE6XERlwM3cIbbmww3MdQr60vMn7y+ynV+ZnHGXa/FXZZ9xXXw1Ox3w3lwXdnAI5W6AXn+MbRXHQB58dUyfUfpMh2TUo2Qrf1aGx87EH1VqTsOq0Wwa0bpKYVRdZTfJXtcyxnv8yr+ifGbRFNfSBOIB5AhiXD8N7wsbfKG5Fr3yNGCbMzARYel++eXuq/1X/e4K7h8FbU2AQQamwuqamNDZl7sShHyahfOqS3tyWmhnTB+1KZ1I9PL6mG5w9Z4XC1CUwW27dclC2Gbw9Jp761VyIfvtuE+cE8ebHvBxFbnmjybtmkhMUFFjjOM4VjuTeJscF42xGDclBmXrys2qR/vtTsuD/DNTn48Sw5PJyjgnG5Gni1QGXZpHRoz2ptSp0D5mE95NMxGBhnG5nWcnupwrZ9R43DMP2gHoZskP//MBEa4Q7RSrg+WgI3rucvHe+BscH7tgtpZDVG2wix0XEgW+2Qf5KqVt4RI3B2JVvne3kKO2tEybb7mK6h8XKIqWXsKosjl7ExjWZsorL01/9yXLnrtSNm6EmWPhNjfUU6Ay325QTL4M5dZnhpr1Q+75RqNpY32cgzoPXVt0cVU9/YIxEP32X06bnzVuz1D66FQbEy55IiuzG7zkhWQnXjktckuGs4vBU1NgGEGptLampj0xHzFpNvBZhw0Ox6S/XHeH4oWdpcDR/gG0+ZgZyy65jPRdliGLqu5tkRGwXSQdvQ2Pjw5sgam8XVMGyLCrZUOUFhcjaZsannSI1u2Mpq088vntFXPXzGDPdnKmHYSRm8XMHADxUm+O2iZlOulXmHcThIY+bz8JNAoB27sUi79ftcq/rZw1boEY7Gg+xTQoZ7SPlgOXVEYzMIjc2tHhgbTFM/1EJUbOJF077fMlXmObkADyaYoPVqEjbex8TUNGT4iRObniVVMHiTGubnM5Apc6RiPK/gNQvoKeyXs69Ef31krmbXR8et0JcYG7JVgJu0BlJkbg2ZWzb1NEBMsU6XwTM8zSUvoGwpUE/99bhSPCHJgmnAdDTiMFz90Rk91+PzECdW/pZjXqnS2caTepJLXpPgruHwVtTYBBBqbC6pSY0N5quDweJcnVDHwH27texOwd424PVi37DQCHSPEMF7x83yMzJrOmkYuCibPaQSQ90/N0P/x6BYoaZLtAobFTQ2bvLqiVzGpgpGJ+oh20hMHrMB1YWLrskIr9besbhcW/K5DOCRIiO8dNEOfwgZ7VaeMblUZXqU+5jXYB4HoSal1DGTfkqVr//wiAaG7jC45ryQHojL7jPy704xKhgUI4EhEXW/cUFcAq/HnSQsolNV+km7z+u/PlJrkh1RAXx12gJD48RsI+zLadhErCEP5cHgWA28uF/n2HHOlCNTWgO2Gd8/USLRX7/nnH7Xj1l2rzer80l4Pdqu4kPPNQL44KSNlys078Cyb5RjNE5XGadG5mvELxy04jUl16QRjc1K17055iDAnMNy5fw0ZaOYuWvhruHwVtTYBBBqbC6pyY1Nudwatr7UBndtU/vH2GBFRE7RHbZdBy8kytI3lpkexXu5xZzojWUywOJkImPrnJL+G6WOVit9MDVExNhggzs5WcdkKxgnhr8Gy6NJe2wIFgtz+3m1/dRWPcCXtQxEyxxMltaZeFZlJRNkfZpTgN8nc7e+LFPZq0LP2KtGxwk012ED3XaNyNVLc5n5qC+jzjFKGLJBAnfF8IMPHGBX0LXZidLpoK/S4gzTO5xVZ5XOqqhCbdX7B2TipxJkcP9ONfSPkUEbbiUfOwTqw/1LekZIg/58ssn5xylN/pFzhmcZubzRhyH0eub6EzWmXX8UOGAgMTbkuXST3kCIvR5Ylr2j5TB5rxa+SVVtLRZY7sDr2ShmvFxqmbrjnE7MHikRjNeTzC/youfNG7GGO6QOZqTZmZ3n9FVlEvNELllNiruGw1tRYxNAqLG5pCY3NillhrBfskxwa7zK9WboB2NDduklXcmvJ4j2BL17oUnHpxsKlsmNaovz+G4VQP+NCgha2vD9T+rFzlMI48GQOCW8ul8lOcyzhmP4k/DZ9nkDOl/BdPRjHMwbZXYm86SWcZbZmATGbve5IsdweyuMtq9SJcyZRecBXkwD6B2F5chuUPj3vYDqjU37dSIYFC2EF3ZLclZla5b/eVKxbNY+2TL8/9ofT6qEqyqAncg7Pc0Bw3fpof1qAV4bvF/ZVU9/DbOhYtOA922HtRIYFMF3vHXYvG9HvvJVSA/8Cih3YBlef1Zm3bXyLAODo2XsHK1GMzbEiOM9f+NWHZAyP1ahjeSS1SioLfaph6uM4lnpdpehQ7MRaGPDXn+ytB+Nd98IMbx6yHAql2f+BJ/TW7hkNSnuGg5vRY1NAKHG5pKa1NgQ/jipWv7uUT0M2ojGhozl+2pssCLqipXDa0es8Ptxxf7YXGWTLZP0BpOJGVIqtSaFnAPo5+PbsqsHgQ+PJVlhboq09NuDkmZ3Kja5t51OZyLWN09yv/Iamcww4ESdbc6WMpPw82wn9CLnjq10NRpXK0Nyz7VG9V7Hg4m7ZDA3VQOzD6rx3wq4b7MMhkSLoOtaviucUNd8J/bf5Keb8BokEga5Tmjq70u0wqfpGlicqW7SVXx4LfpL9I792wQAN21AU+jF5oLeipRp51A+jNihNG+rdJTpLI7vG9OI4/34WrHUovs8D1yGDuukRjE2aJD7xqnhlSM2+PSILHzhwuaz59aVjYYvosYmgFBjc0lNa2wAWs9OkoY+tVcDfWKVru78Kx76hopUED3WieGLDDtsO6tLKRCZbuRiaxFkXjQO2n5Gu/fL03boSc6HWu7DnA122IUPLx5ywKLjirOrT8tHctE0G/De7oMahurE/corAHa22V6k+/6nDFPlE0k6GBSDDTLbte+hWQ6rhXbYgPUlK6PiVTB4kwr64j3ZLUoBrcnqqfqw2DJFeRKmB2JNDYbdcw0PvswFOMkzMVKd7WMuW00CMTY2h3PPXhHAzeR4gcWN02NTb8RH7DLCOymKms1l5vfwviAb8jVaHYVxTRcZ7IrvCoixwevdGMaGmFt8gbltqwaWn3FAWpWuyfaacoe7hsNbUWMTQKixuaQmMzaYp1sVZuaz+TnGjLvwrbjjOhFWbPiAu3nwGyLyltUTjc2iMwzkC80pKhPTooxN0DeHu3x1ULLr5cNW6EqMDekKd5PPaworY3b4ZSUP3jvhhN1n9efOiUyPcbH8a8D7aLKSYX749Jjupxd2Sc5OSLZBm3Vk+KSKNSBuy+YfxL45k8aV9BwSI0NMDNvY+n5fuhNrkDCdXfHe/yzPCeliRmGyM2S48BEue00C1v1dMQ1vBhebE3uuFeqCQsVu0+9Xkft1ORqoUD58fAZg30U9P6/W8CCXpEYD832P2Oj89fUjxjOdVguhzWpBYI0NubfCeNA1XAr3bJbJws+Y41Vaywt4DZpkGNId7hoOb0WNTQChxuaSmtLYTJGbnbXLLzBM7wiBX96C2YYJG4r+UVLYxAOQGhypeB/fxEXZ7MG09kis0j36Zooy9cHdOs7s+WBsyPwPNDY/4NtnsdR6zmZj/jXGBsuqo9xoG1ljZPYn1lqdU/Ypnd1W86A1OWuM7CHj5b3E3kNsY8P9m5O7z3or9l5HE992rRgGbVTDq6kmOKZg5PhMRKNID0UrLptNBqahdacVtVPbhtQKWvt4vIBHwvJui2XSLUIIv513KgUm5wEsi0Y3NqTs34hXdB8WzY8aHKeAjuvlfr/+l4tdCYf37MhkBl5LklR8d1w1rjlc/8tx13B4K2psAgg1NpfUlMbm5WqtXbOwDKANma/gZmJnQ3SpQQquhmGb5XBQBWB1ONMwHp/3QWks8Jl76aLGlvZxhlXWK1IErbkNC93l1xOxxmY1HxZdQJNncpzHsvjXGBvGbJ6YWmk8/GO+Xf/EfjMMjtdBELvqiTQU3g/fBVrsfUp6g1bUwfXRcviuGOAY3+LUMMwyvD53u3LXTPi9/Kk+q+t4XQJ8vAD73OLzPzBWAc/vlcPKYnM8lsUYfB56cilpdMZv4a8ZsVPNDkWyvXZu0u0PBa1w9VK9nwOwuUR3MUegvp9LQrPBXcPhraixCSDU2FxSkxkbi8X+XLbQwpuTxWCl5qrs3T34noptMNAgdV4ngRFbpZbN1Tayf80XqD5clM0eTOt3FUaAj8nERXa1DcpbY0Mai+XV0DNSCPFyAKPdKcLwm8XyUV+JLdRMWldi3/7daTMM22GEoEVVruEjH0xgwEV60Mj1xOvaJ1YL92wQw0MbRce289lempWou7jsNRseihO+fFeMUHDdZjQ2PuyldC2xPVhLquDBJCtsqQHI4Zt/5ZLQJKxJl3b97qh0/dT9OugbI3cZUTfp9ll4v7YNE0IXfPn44LiloEho/hXvg1u5ZDQb3DUc3ooamwBCjc0lNZmxqZJZnku4oOfNPO5wGRuyX4S7h99DsW99oXUwZLMexm8Xqd45rCATD8lJ0E2SP2+w2RxfpNYYna8c45aaejkMxZo8/G5bNHr3b5LAboHTYHU6T2F5NLtVUZ6A17AdT6PpvfAMc920ZMWoTw/LjjyfYrL2XS+D1mSVEjsPphn30rD3JqYR09o9QgKP7zNa56TIC+Yd0z57wXVMQFdUsxp+IExLkLw8YZtYcPM2NI/cKjB3+fNVxNi0W1kHTx8y2E6KrEqHg/mGS0KTUFoq7RqTq1r/RboRyHAUa5rdpNsXsffEyhrot1ELj+5UwsxkxWJGzHTB+6BRT933BHcNh7eixiaAUGNzSU1mbFLKtc+FZmt4Uw7b8AF3VfzuKgBP5Zq3UAv37DbDjCSJ4v19khe5qFoMQo3tsx3ndJan9ptdKzJImXgxcdFVadZCP3zbfDFBBlFnDbvwHnoa1Y+LqkWB6b5VaHQuW10BO2+IEh2+LZJvHhivR0OMpiakOrCTO30Uey3IG//iKugZo4R3TjlgaaHlWGiG6jnMV5PvAH01fkhVvPzmPqngvkvnlfnfPJJ7vHUYH8bs1MGXx7UXCiS2r7FcmnRITiqFrvvL9Ot/yTHDTcTY+OGolyvFGsVl1XBfogWWFDkg8Zzmf1z0zQ53DYe3osYmgFBjc0lNZmy+OSh+/LMj8tpHkq2uStNXY4PfJ6uAHt5nhgUnlMpNRZo3uKhaDOnVxs9W5qgt4/biG3J9j423xmZ5DQzdqoVPjygh5JRqHhdFiwTrokdVVqesCP/x9DFA0yaGoD8qm+3wU32PGdsghgpgwCYtTEYD/9EpI7PxguV0uVw/k8tas2Zdpvrl747IBY/iMxUwY7O8GjqHi+G38wBplfqCM2XqJp8TJwXomisyrV9xxgq3sptk+t/YkGNf2q8SwqidavnGEl2qUm99lYu+2eGu4fBW1NgEEGpsLqnRjQ3eV61Q7b9KU0x9cY+Ufwc5RZe8vfhSaZL5C2RpLpqByQetsP6MTpnDM7U4YxOcofr4o0Myy727DKxJI+XiNr/XEFueWBkP366FJdlaOFppaLZvg56A9/9DFqezsM7KMAtOqGHoRjF0XiOE9quF2ODw2HuHVROaHNbMEEPJpoMHbTF9ndaIoHc4HybslFp28OzGi1pHvsjATGYYcbPuqaknoUj38qITKsGk/RaXsfHx5eNy1ZdXq5V1MDROCtv5jNVgdRzBuqHJd9vFNHTl62wxm6sAhm1WQdAS/xobco+0wfvjjh0mmLRTkvtrpm483uPNdod0dw2Ht6LGJoBQY3NJjW5sMC9dUO8mCRwpExIU+u7rpa4GwZeKo97YBNfAtGN2SKkyKlUmR4szNs9sEbwzabvYfMMWvSs/XpYJ27gurobRCXrYVmYCudH5CxdFiwTvl+uwPpruYJiP9lw0/7quWCtZVQ3wwmEHe3wG2/AsQ5EhH8y7uzIJpNhGmphJ0oNE9s8JE8G9CVb4LB/gmzSl6Mt09a91mHbMx8vE1HPZavakVhpfXpOrETxPDoQkZUvmwflp2I89yRrN+40bFfD2QYUtVWTbjmXzEpZRby76JgPT0M1id27N0APcjy8HQX9W+lY/XSHSk9d+rQjezwUIy1HlJl9kBnFRN0vcNRzeihqbAEKNzSU1RY9NX8xPQpYBYNQuDWtGWGPjpgJoiOpPxv0EG5NCicWG8bzNRdnswbR2Vlut9392QhN670ahrUeMknvzd5/Xa4n97pIqeOawFXK1GDoAuc7/CvDeITsVrxA6mRO/Zeqzp+yTGp48aIIHdhrYjRlZc0FWlHENMTskRBpRN+Xkjdh7lZQvCZfEQeLCBrpjuBhu2aKDsftMMHqb0PBikip7Vy1z4rzYvJykmUt+i6JIaHw5vkQnmH6EnHSNefWnsSErxJZWw/OpTkisNEOZ1PwJF22Tg9erE+q7ZIGj+JaNMlNQMB/vH//t49N6JR96rBU4vs92lOcJTKtMJriBi7pZ4q7h8FbU2AQQamwuqUmMjRONzSEVwNAtpJvX93No2MYGG5pOWPn8WAhQpbUrscxaTI8NpvU2ucW+dX2lQ3JrrIhpRTaYIz0AJF/eiAwbYGP7WqoZ8uV2YmxadI/NlWB5DcI83Xm41vZIusB06LjUDsF5JnhqlxT6Rgmh9Wo+u1FfK6IwbJTIcJW7cvJGxNBg+ZI5EmRFVlu8Vn0ihHBvnAjePqyFDRdtsPOi/tCSLN2jJTq4k6SVS3aLQ6i2v5xSZhC8RVbpkZOu0cj5w9iwxhBNUie8Tl/hi0iZymq2Wh0fcNE2OXhvtUb1n35UMbtTOK8mKEqD+cZ7yU1eGqL6+6fPBg0MjxNZ3jqo/UWFpgbjata9eO4aDm9FjU0AocbmkppiKKqPQGfbGl3OwGByDg2ZmOemEmiISEVJ5jQMiZXB3BOmoosa2/8wnnu4KJs9mNb7+Ab7uRgRQLe1IghaRCbGkoaE9Dw0UKQHYTkPukXK4flkdd3ROstqDH88F9W/DswbWV3002kh81tcifZ8PB9gSTnAnAwGnj5gg+G7zeyZT+zKO7LSjB22wp+kp5DtbUFdXn7k//UifydDXOQ75D7lvtN9nRBGJxhh5jEH/K8YYH0NxpmlPheca/6t3MD8RNLEJa9FY7QwL2fwLYIPTzqxHPB+xHvSV2PDDtstr4YOeJ9POcZAxAWrSGF2LsUya3bnmAX979wDAyLrzvfcbMK0E4PswzAnGS4nphjvp4eSGfhfhh7WF6qbtI33FHcNh7dqcmODN9qNSqUyLS4uDrp27eoujQ3WhAkT4McffyyNjIxsUmOzYcOGiT/99FPF+PHj3abTCwXa2HyMxsY5e/Zsd3H7okY3NgIt0+d4lWHrHwV2GBCLxoY0Fu4qggaIVBhd1kth9G49vLhbvHFyfHl3LroWgZVh7i2WmM+E1wLcEq+D/mhKBm5UeqUBsQq4YZMOJh8DmJksKXwnVdfsNn4LBPgi1g6fk/moErGNKdlbZij5MU1R8nyCuOSJHRLZ08k6eHSvDu7broFhW9VwW7wKbt6kwrJSwaDLym/wJiUMwd8R3YQairp7ixru26mGkft0MOmAHqYnSZhPDsorI3I1JSUKpkSHcdoY5kdMQ7M538cfYH6mX1TZVV+QDSP/xOd0CYoM73krMnRHFMyDnhEi+zc59rpDVYZVQh305aJsVsxIFI1/eofo4q3bzWjqiCHzMf/kZWUZD57Ya9DuPKcvkOrsU7momjXuGg5vZUC9j2oyiLFRqVRHibHp2bOnuzQ2WE899RQsWLDgXHPosVm4cGHlxIkT3abTC0lRAbtJ8VrMRWNjf+edd9zF7YuWohrV2Bwq1fSOLtBu+fSkFfrFyFxvxm7Miqdi3wCxsuyFYb18yARfHpTGBI3Ib8dF1yLg6Zl7MuqM+TsEAO8cNcKM/RqYfVjrld48qIX3j5kgpBxgbYE6Ozi76ZfPNhb4nAxCjSU6LzGNXZ2jHPtWkmTsxlLdqqN8K2SoAXZUOmBNsQX+yDbCDycN8GmaHt47qoNZh7QwC8vvg1QdfHRMz+pr/PviXBNEl1phd40DjsoAzmoBskSmi4ll+jePnteycXFqsUNO/wTmaZrM7JDPKyYnXeNzFoxih/W8FDvEyocesVoYFivUYln/fLZO0+x22q1nVbZ6wrepivLxyXZ8eeJjPeND/knew8UwOE4Lj++Qn9hSon0Wy/d6Lqrmy7x588Af+uWXX+Crr76Czz77rEknU6Fb76XRaD7cu3dvOpoR+PXXX92m1xP98MMPMH/+fEhISID9+/cLMzMzm7RrPCcnZ/KBAweUu3fvJj1IbtPsqUi5fP7557ZPP/10Bhe83yEVZ21t7VpEgoaMmEO3afFUP//8M3s9vvjii9UYXqMaG6TV54ckG6YeNkPPaDQ2pPv/CrPSELm6tmugPxqbr05bYFORbtOpEk0vLq4WQakU+qdX6r9M4jGhizJ1oT+dUIYuOq32Sr+eVIcG5xhC9wmY0EMYZg6GzUXznwWfnwdRZBJvqNrkDD0jMocevWgI3X5GFxqRpwkNzlSH/oHl9geW34psdWhYjiZ0DWoj/v1YlSm0QmkN1VmdoeT7nD7B+rEjF/y/FszncK3VuWhDpbN6fgnA/LPAnm31Hf7bG31LvotajQY+rEDjiCpQB6yX2x8USc1PHa02yvcqAL7HdH9b9Pc8eapvzwAsxJeNWBH7wnHgq0ymExdN86bOT+h0OvLjPOo1LugmAR9cst9IWz6fPw3TUkLSxePxSNoaDDbKdQKBoM5ms9UplcqjRqNxBBdNk4B5eQTTcYKkB/PHpbLhkPLgrld+TU3NZC54v4PXoQ3GMRDji0SzWSeRSEicXqNQKOpEIhH55zwMu9GMDVaUXY5UWu+ddUCxd9RuLXSOlLBdtO4Mi6dijc2yahgcK4flZ+yQJzBvwjJqUcaGPGv5+dCuFKA9q1IfhWFgmETtSNhcNP9puPJwq7+UOfd/d5+7TP+qIad/AvPZGuuK7pVa+2KBzVknQuG/vVYF+alz1BkdTJ3C7Cwy2O1TuKiaJSYbM1ZtcRy3Opm6ar3DlX4vRb4rsjJ1Fsy72uKMwLqwyZe1ewQmlHQt+UtPoYZwQTcpeHP3RD15Rfp80WMYXpM2PBh/X9TjbtLmrSZieAF/M8Z47rkiXp+Eab4T1WgNH8Y5sUpj2/t1tk3YL0oEbciEPC83oasXu9JgaTXctEkBsfhGJNDYN2GeWpSxoVCaMwxjGXpl3eGr8BklbcpALopmCaaPbC1ANs9zmwdvhXkfgT87cNFQKJSWDD7QH9bqnTCvBF8FydwasveMG7PSENUbm+E7NZCqBTBYnYlYabSMtyEKhUKhUCgtF4fD8e4ZmdX0XgaZjOhaYeDL8lF2GAqNTeuVdfBogsqZKmP0aGrWoYHqyUVJoVAoFAqFEhgUBuvsg1VGzdSjVv8YG7Kj7Coe9I1VwWM7ZfKYMnMwGptH0Ni0mG3rKRQKhUKhtFDyBIbZ6wu1mqdTzK79a3w1NmQHUzQ2w3Zb4JldoupJm0WPcVFRKBQKhUKhBJa4Iu2bC9IVGnKeDrtRFxoTd4bFU7E7eaKxeSTZCp8eltX8elw9gYuKQqFQKBQKJbDM3CV65dVEsfrOXWhsyE6cYe4Ni0ciW5STMELqYOpRO0Tma2pP1pgDtuSeQqFQKBQKhYUsbQSAO+dl6H99IF6o77tB5RpG8tXYsFu018H7pxg4WmmoVRrs1NhQKBQKhUIJLGhsBqPCN9U6eANixI62ITyfl3kTsT02q3jwRT5AgcjCwzie4aKkUCgUCoVCCQwWi2WoSO/IipcA9FgvgaAlVf4xNiE10GEND5ZVA9TpbDo0Ni9wUVIoFAqFQqEEhjyZYcCO8/qDX+cBdAsXsSui3BmVhojdv2YVD65fL4Rl5xwqpcWRjsZmHBclhUKhUCgUSmD4ON3Q/6ND0pSnDlqhEzE2ZJm3G7PiqdiN+UJroUukDO6Ol8GHx7Q7pSbbo2hs6I7DFAqFQqFQAgeajftS60zzn9unPjc4RgFtVwvYjfXcGRZPxRqbkFq4Lk4Fz+xVw5t7xX9y0VEoFAqFQqEEDqPZ8emBKqP+6RSToxXZbTjUt035iNjzoVbUwE3xKvgsXQfrcjXLuegoFAqFQqFQAsf+C9pvV56xwUNJNvawSnZTPn8Ym+AauGurGlYWmCCHZw4BgHZclBQKhUKhUCj+hRxEabfbJy7JM256dIvQeX203LVTsC9713Bijc2SKngw0QgHpAAqgz2CGhsKhUKhUCgBg2GYYaUyy6GfCp36Lqv50HqFe5PijVhztLwWHtqjdR4Q2k0Y12JqbCgUCoVCoQSMxPPa2//IVF145TRAUKgAgpZXuzUpDRV7ovdqHvSJVsLonXLexnLrn2hsxqCxac1FTaFQKBQKheI/4rP5g9/bL59z7ybpxes3aNCQ8FlD4s6oNFTs5GMMb/ReG8zYKy54NUF8DxcthUKhUCgUin8hPSdLM5XfzUpR1g2KUZhbkeMT/DCvpl5kmXfrMAHMPgUQXaA5c6RSfy8XNYVCoVAoFIr/AJ2u794S9defn7SUPJRggW4RcghaUe1fYxNMVlYJYGkVQLnCVmuyMWO56CkUCoVCoVD8w3mZYcDGEvPcn4+rRZOSrRAUynftMOzj0u4r1TaUBz3CBRB8zi4y2pzbGYa5m0sChUKhUCgUiu8AQNv1+br5X540VYzaoYHekdzSbj/sWVMvdok3htl/gxImbBfDT5nacGJqUF24ZFAoFAqFQqF4D5qKZ3gO5psPUnULpuwSXxiXbIe2a6Wu4SI35sRroTkiJondu2avDcLOMpBUqpnHJYNCoVAoFArFO9DMXI+6Ob3GNqZAZj20tcZmfzpRYe+2hgdtwvhoQPw7WZgVa2zqoM2yOng8UWfeV27gGc2OOVySKBQKhUKhUBoOAPQ1O5ll5Vbm0M8Z2pNT90mNEw5YYFC8HoJWk1O7a1zLuv08r4b01rRZI4CbN2rgmQR5cUK54R1Myy1csigUCoVCofzXYBhmoJ1hptZZmdn7zhtmlwpMs/F3l+su7nP31f/OYHXMvigyzd5XrJ0994B09vRk2U+LcjSSlVUAzx+2QcdwNDNLqiEohBga96bEZ5HemmVV0Hq1GD4sBFhXqM5ekyPtz2aKQqFQKBTKfxM0KhN1NmdxhgI0S06pNXGFWk0m36QRGO0aKeqCyro0/IzhgUKZdQ0f/39WbdccrjZqthTrNEtOKjQvJog1Q6L4+l7hfOgVKYZO69DUhPFck4QDZWpQpAeoXQgPBsbIIbycMYlNjkTMyxAuWxQKhUKhUP6LoBl4rlprV8VJAMbvscCz+8zwRroNPsp0wqeoCdtFNX3C6lImbBcLye/eOeWEV4/a4PmDFhiPnx263QCdotUQtILvOqU7kL00RPUThpdXw23xenj9gA62lls2YT6eQHXjskWhUCgUCuW/iFRjfjqlwlAz+ySDxgQNw59oTpaiOVmMP4lChBC0hmyoJ/j/35G/B6NW4OdXolah4QikmblcrLHhYbr4cNdWrWh+umJfdI7sMS47FAqFQqFQ/stsKdQ8+cdpVdVTB+1oFtA0LEfDQsxKCKcwNDThYvzJ///fkb9z+9Gw+8g0lqlBkXjbYHqGbNHDyK2yQ18clt6/c2dpey47FAqFQqFQ/ss8uL5mzJM7xBV3JFggiD2UEg0EWb10LbkxHYEW2QMnaEkldIxSwDfnALae1ycxDNOBywqFQqFQKJT/KgDQBk3B0M9Pa7+6KVYk6hargaA1nLG5wlA0udBIsb1DIbXQN1IOT6XoYZ+AqcT0/4756MlliUKhUCgUyn8VNARdzU7nn/E1jtqbNyusrVY2U1ODYoe7yPAXpvHFQ1aIOqNTVKocX6CxGYL5aMtliUKhUCgUyn8V0tPB09oSdkgBbt2mYY8laHbGhhvyIvvVdFgng2cPO2DlWeeF80LTD4zROJDLCoVCoVAolP86paXQfttZTey8HAcM3KB0rXK60lg0sdgJyitroec6KTySqIPlRRb+SZ7pZzRlHblsUCgUCoVCoSALS9vPSpJEP5lkgB5RctZAuDMXTSXXXjVkhRYPXjjqgJX5Wtlxvu0Llcp0A5cDCoVCoVAoFHZTvqGFctvHUw/rsq6PkUK7tWS34GZgbMgkYTKfhiwpX1IFA2IUMDXNDuvKmfN5PN3/MN39uCxQKBQKhUKhuECD8Gqx3CJ4L9thd03KbXpTwxoadm8cHnSNkMANG+XwdpoJdlWY5XU6x3xMM13WTaFQKBQK5e9oTY7ZJ+qM9rezwDW3JqTGrdloNNWvelpWDe1XC/6vvbsLaTKKwwA+VxQVJa0IhD5MxIsolIokusgoghC78SrvJKiLIqIbgwipm/CDSNFqM8nK0GXOr0QFRS8iA4u6CLQv0327NbbVNnVu5+kc944SNIJCCJ4f/Hnh3fue/S8fznkPB8e7IqizAkOumH0yGLsEIF1rnYiIiGihoQ/BAtOI35vfG00ci3BrmWdskrud1AyN+o6mbBwrqu3ItUSQ3+L6drHf3z0ZwxMhRKnavaW1TURERPSTDAkpMiysqX0dLD7X4/XtfRpOzJRULU+wmV9uUh8Fzx/FYMPKGifW1jhgMLlwyBJAxdu52c7RUHvX+1C27HOL7DdVa52IiIhoIRkWDLIutFujg0dbPDMbje5E2FgkhPyzUrMzyRmaKlkV2kGaVS7sbA6jaHAO9Q7gmV3grR8NIioOa+0SERERLU19qzIbE8PPBbCrLQpdmTVxUrdaDkqe1K1KLRGpUqFHCz5LhZ/kb4nZGFnqPTWG2tmkxi2XIeamDTqTD4aHQeS0TiOvI4I9Dfap/Y+dAxUjgf6gEP0ycLXKOqi1SkRERPR7Mths98/E+5pcQNqDKaG78VnoKyeglyFEL8NIilqS+rVkWFkszCxVevW89q5eBpz5cdX4lV+Ernoint1oj18djsTNY9Px5rGQ8YTFk2V+F8iUgSZThS5ZPKWbiIiI/owMEOu/hkWhaVyUpDd6Sou7va+uvAjg/EAARZ0enGx1I6/JiX2PHMi6b0eayQbDXStSb1uxqta6YOYmeV0t72+6Y8XWOhsy6u3Y3WDHkWYnCtvcON3rw2U5/pk+78cdDY7yPLOjpOWTKHGFRIns5YDWFhEREdHfk+HCOA1gzA90j35H/UgA1wZ9ONvjRYHFjRwZcDLqbdhmtGGdDDeLBZsN8n7mPRty5bPHzC6c6pjC9SEfmt4E8dIZQ0COH47Fe+Rls/a3RET039LpfgBXcVBzOWRdDgAAAABJRU5ErkJggg==;" vertex="1" parent="1">
          <mxGeometry x="402" y="296" width="104.33" height="40" as="geometry" />
        </mxCell>
      </root>
    </mxGraphModel>
  </diagram>
</mxfile>
